<mxfile host="app.diagrams.net" modified="2023-09-15T11:24:34.246Z" agent="Mozilla/5.0 (Windows NT 10.0; Win64; x64) AppleWebKit/537.36 (KHTML, like Gecko) Chrome/117.0.0.0 Safari/537.36" etag="8d39tWpLCbzug29dlOh-" version="21.7.2" type="device">
  <diagram name="Page-1" id="197159a0-c6a4-9194-75a8-e4174976684c">
    <mxGraphModel dx="989" dy="517" grid="1" gridSize="5" guides="1" tooltips="1" connect="1" arrows="1" fold="1" page="1" pageScale="1.5" pageWidth="1169" pageHeight="826" background="none" math="0" shadow="0">
      <root>
        <mxCell id="0" style=";html=1;" />
        <mxCell id="1" style=";html=1;" parent="0" />
        <mxCell id="UqkWfA2BPY7kU7Ovkipk-71" value="" style="rounded=0;whiteSpace=wrap;html=1;" parent="1" vertex="1">
          <mxGeometry x="923" y="720" width="366" height="231.5" as="geometry" />
        </mxCell>
        <mxCell id="UqkWfA2BPY7kU7Ovkipk-39" value="" style="ellipse;whiteSpace=wrap;html=1;aspect=fixed;fillColor=#000000;strokeColor=none;" parent="1" vertex="1">
          <mxGeometry x="1164" y="831.5" width="10" height="10" as="geometry" />
        </mxCell>
        <mxCell id="UqkWfA2BPY7kU7Ovkipk-47" value="" style="rounded=1;whiteSpace=wrap;html=1;fillColor=none;dashed=1;strokeColor=#666666;strokeWidth=2;" parent="1" vertex="1">
          <mxGeometry x="1058" y="741.5" width="40" height="30" as="geometry" />
        </mxCell>
        <mxCell id="UqkWfA2BPY7kU7Ovkipk-44" value="" style="rounded=1;whiteSpace=wrap;html=1;fillColor=none;dashed=1;fontColor=#666666;strokeColor=#666666;strokeWidth=2;" parent="1" vertex="1">
          <mxGeometry x="1094" y="791.5" width="53" height="130" as="geometry" />
        </mxCell>
        <mxCell id="-5amKMERLcREwqAfRV0c-34" value="" style="whiteSpace=wrap;html=1;" parent="1" vertex="1">
          <mxGeometry x="80" y="807.5" width="322" height="144" as="geometry" />
        </mxCell>
        <mxCell id="-5amKMERLcREwqAfRV0c-16" value="" style="whiteSpace=wrap;html=1;" parent="1" vertex="1">
          <mxGeometry x="81" y="100" width="214" height="180" as="geometry" />
        </mxCell>
        <mxCell id="29zYwKRM0pQ-3oz3xek9-399" value="" style="ellipse;whiteSpace=wrap;html=1;aspect=fixed;fontSize=10;fontColor=#000000;fillColor=none;" parent="1" vertex="1">
          <mxGeometry x="1165" y="568" width="14" height="14" as="geometry" />
        </mxCell>
        <mxCell id="29zYwKRM0pQ-3oz3xek9-31" style="edgeStyle=orthogonalEdgeStyle;rounded=1;orthogonalLoop=1;jettySize=auto;html=1;entryX=1;entryY=0.5;entryDx=0;entryDy=0;strokeWidth=3;startArrow=none;startFill=0;endArrow=classic;endFill=1;fillColor=#d80073;strokeColor=#A50040;exitX=-0.001;exitY=0.453;exitDx=0;exitDy=0;exitPerimeter=0;" parent="1" source="rLxRDN-JaPaV8J7SCyjs-1" target="pXlnRN1fEk7zmC_KEz_S-2" edge="1">
          <mxGeometry relative="1" as="geometry" />
        </mxCell>
        <mxCell id="0LZvKdBmU08WbHENAA4L-40" value="&lt;font style=&quot;font-size: 9px;&quot;&gt;2 x 0.75 mm&lt;sup&gt;2&lt;/sup&gt;&lt;/font&gt;" style="edgeLabel;html=1;align=center;verticalAlign=middle;resizable=0;points=[];labelBackgroundColor=none;" parent="29zYwKRM0pQ-3oz3xek9-31" vertex="1" connectable="0">
          <mxGeometry x="-0.1189" y="-1" relative="1" as="geometry">
            <mxPoint x="-3" y="-16" as="offset" />
          </mxGeometry>
        </mxCell>
        <mxCell id="pXlnRN1fEk7zmC_KEz_S-1" value="&lt;font style=&quot;font-size: 10px;&quot;&gt;Power supply&lt;br&gt;...&lt;br&gt;20 V 90W&lt;/font&gt;" style="rounded=1;whiteSpace=wrap;html=1;fillColor=#ffcc99;strokeColor=#36393d;" parent="1" vertex="1">
          <mxGeometry x="757" y="737.75" width="120" height="60" as="geometry" />
        </mxCell>
        <mxCell id="29zYwKRM0pQ-3oz3xek9-4" style="edgeStyle=orthogonalEdgeStyle;rounded=1;orthogonalLoop=1;jettySize=auto;html=1;entryX=0;entryY=0.5;entryDx=0;entryDy=0;strokeWidth=3;fillColor=#d80073;strokeColor=#A50040;exitX=0.999;exitY=0.467;exitDx=0;exitDy=0;exitPerimeter=0;" parent="1" source="rLxRDN-JaPaV8J7SCyjs-1" target="pXlnRN1fEk7zmC_KEz_S-3" edge="1">
          <mxGeometry relative="1" as="geometry">
            <Array as="points" />
            <mxPoint x="910" y="700" as="sourcePoint" />
          </mxGeometry>
        </mxCell>
        <mxCell id="0LZvKdBmU08WbHENAA4L-39" value="&lt;font style=&quot;font-size: 9px;&quot;&gt;2 x 0.75 mm&lt;sup&gt;2&lt;/sup&gt;&lt;/font&gt;" style="edgeLabel;html=1;align=center;verticalAlign=middle;resizable=0;points=[];labelBackgroundColor=none;" parent="29zYwKRM0pQ-3oz3xek9-4" vertex="1" connectable="0">
          <mxGeometry x="-0.5673" y="5" relative="1" as="geometry">
            <mxPoint x="15" y="-13" as="offset" />
          </mxGeometry>
        </mxCell>
        <mxCell id="29zYwKRM0pQ-3oz3xek9-5" style="edgeStyle=orthogonalEdgeStyle;rounded=0;orthogonalLoop=1;jettySize=auto;html=1;entryX=1;entryY=0.5;entryDx=0;entryDy=0;strokeWidth=3;" parent="1" source="pXlnRN1fEk7zmC_KEz_S-2" target="pXlnRN1fEk7zmC_KEz_S-4" edge="1">
          <mxGeometry relative="1" as="geometry" />
        </mxCell>
        <mxCell id="0LZvKdBmU08WbHENAA4L-41" value="&lt;font style=&quot;font-size: 9px;&quot;&gt;2 x 0.35 mm&lt;sup&gt;2&lt;/sup&gt;&lt;/font&gt;" style="edgeLabel;html=1;align=center;verticalAlign=middle;resizable=0;points=[];rotation=0;labelBackgroundColor=none;" parent="29zYwKRM0pQ-3oz3xek9-5" vertex="1" connectable="0">
          <mxGeometry x="0.8381" y="1" relative="1" as="geometry">
            <mxPoint x="19" y="-11" as="offset" />
          </mxGeometry>
        </mxCell>
        <mxCell id="0LZvKdBmU08WbHENAA4L-67" value="&lt;font style=&quot;font-size: 9px;&quot;&gt;16 x 0.35 mm&lt;sup&gt;2&lt;/sup&gt;&lt;br&gt;4 x 0.75 mm&lt;sup&gt;2&lt;/sup&gt;&lt;/font&gt;" style="edgeLabel;html=1;align=center;verticalAlign=middle;resizable=0;points=[];labelBackgroundColor=none;" parent="29zYwKRM0pQ-3oz3xek9-5" vertex="1" connectable="0">
          <mxGeometry x="-0.7648" y="4" relative="1" as="geometry">
            <mxPoint x="2" y="-24" as="offset" />
          </mxGeometry>
        </mxCell>
        <mxCell id="29zYwKRM0pQ-3oz3xek9-7" style="edgeStyle=orthogonalEdgeStyle;rounded=1;orthogonalLoop=1;jettySize=auto;html=1;strokeWidth=3;" parent="1" target="pXlnRN1fEk7zmC_KEz_S-17" edge="1">
          <mxGeometry relative="1" as="geometry">
            <mxPoint x="710" y="530" as="sourcePoint" />
            <Array as="points">
              <mxPoint x="670" y="530" />
              <mxPoint x="670" y="900" />
            </Array>
          </mxGeometry>
        </mxCell>
        <mxCell id="0LZvKdBmU08WbHENAA4L-62" value="4 x 0.75 mm&lt;sup style=&quot;border-color: var(--border-color); font-size: 9px;&quot;&gt;2&lt;/sup&gt;" style="edgeLabel;html=1;align=center;verticalAlign=middle;resizable=0;points=[];fontSize=9;labelBackgroundColor=none;" parent="29zYwKRM0pQ-3oz3xek9-7" vertex="1" connectable="0">
          <mxGeometry x="0.8143" y="-1" relative="1" as="geometry">
            <mxPoint y="-9" as="offset" />
          </mxGeometry>
        </mxCell>
        <mxCell id="29zYwKRM0pQ-3oz3xek9-12" style="edgeStyle=orthogonalEdgeStyle;rounded=1;orthogonalLoop=1;jettySize=auto;html=1;entryX=0.5;entryY=1;entryDx=0;entryDy=0;strokeWidth=3;" parent="1" target="pXlnRN1fEk7zmC_KEz_S-19" edge="1">
          <mxGeometry relative="1" as="geometry">
            <mxPoint x="710" y="530" as="sourcePoint" />
            <Array as="points">
              <mxPoint x="670" y="530" />
            </Array>
          </mxGeometry>
        </mxCell>
        <mxCell id="0LZvKdBmU08WbHENAA4L-53" value="&lt;font style=&quot;font-size: 9px;&quot;&gt;2 x 0.35 mm&lt;sup style=&quot;border-color: var(--border-color);&quot;&gt;2&lt;/sup&gt;&lt;/font&gt;" style="edgeLabel;html=1;align=center;verticalAlign=middle;resizable=0;points=[];labelBackgroundColor=none;" parent="29zYwKRM0pQ-3oz3xek9-12" vertex="1" connectable="0">
          <mxGeometry x="0.8397" y="-2" relative="1" as="geometry">
            <mxPoint x="33" y="-19" as="offset" />
          </mxGeometry>
        </mxCell>
        <mxCell id="pXlnRN1fEk7zmC_KEz_S-2" value="&lt;font style=&quot;font-size: 10px;&quot;&gt;Voltage converter&lt;br&gt;TOBSUN DC-DC 15A&lt;br&gt;5V, 15A, 75W&lt;br&gt;&lt;/font&gt;" style="rounded=1;whiteSpace=wrap;html=1;fillColor=#ffcc99;strokeColor=#36393d;" parent="1" vertex="1">
          <mxGeometry x="740" y="500" width="120" height="60" as="geometry" />
        </mxCell>
        <mxCell id="29zYwKRM0pQ-3oz3xek9-17" style="edgeStyle=orthogonalEdgeStyle;rounded=1;orthogonalLoop=1;jettySize=auto;html=1;strokeWidth=3;fillColor=#fff2cc;strokeColor=#d6b656;" parent="1" source="pXlnRN1fEk7zmC_KEz_S-3" target="29zYwKRM0pQ-3oz3xek9-16" edge="1">
          <mxGeometry relative="1" as="geometry">
            <Array as="points">
              <mxPoint x="1185" y="370" />
            </Array>
          </mxGeometry>
        </mxCell>
        <mxCell id="29zYwKRM0pQ-3oz3xek9-18" style="edgeStyle=orthogonalEdgeStyle;rounded=1;orthogonalLoop=1;jettySize=auto;html=1;exitX=0.56;exitY=0.007;exitDx=0;exitDy=0;entryX=1;entryY=0.5;entryDx=0;entryDy=0;strokeWidth=3;fillColor=#fff2cc;strokeColor=#d6b656;exitPerimeter=0;" parent="1" source="pXlnRN1fEk7zmC_KEz_S-3" target="29zYwKRM0pQ-3oz3xek9-15" edge="1">
          <mxGeometry relative="1" as="geometry">
            <Array as="points">
              <mxPoint x="1185" y="370" />
            </Array>
          </mxGeometry>
        </mxCell>
        <mxCell id="0LZvKdBmU08WbHENAA4L-71" value="&lt;font style=&quot;font-size: 9px;&quot;&gt;2 x 0.75 mm&lt;sup&gt;2&lt;/sup&gt;&lt;/font&gt;" style="edgeLabel;html=1;align=center;verticalAlign=middle;resizable=0;points=[];labelBackgroundColor=none;" parent="29zYwKRM0pQ-3oz3xek9-18" vertex="1" connectable="0">
          <mxGeometry x="0.9227" relative="1" as="geometry">
            <mxPoint x="35" y="-10" as="offset" />
          </mxGeometry>
        </mxCell>
        <mxCell id="-5amKMERLcREwqAfRV0c-27" value="&lt;font style=&quot;font-size: 9px;&quot;&gt;4 x 0.75 mm&lt;sup&gt;2&lt;/sup&gt;&lt;/font&gt;" style="edgeLabel;html=1;align=center;verticalAlign=middle;resizable=0;points=[];labelBackgroundColor=none;" parent="29zYwKRM0pQ-3oz3xek9-18" vertex="1" connectable="0">
          <mxGeometry x="-0.4995" y="-3" relative="1" as="geometry">
            <mxPoint x="-12" y="-6" as="offset" />
          </mxGeometry>
        </mxCell>
        <mxCell id="pXlnRN1fEk7zmC_KEz_S-3" value="&lt;font style=&quot;font-size: 10px;&quot;&gt;Audio&lt;br&gt;HIFIDIY LIVE C50L&lt;br&gt;20V, 5A, 100 W&lt;/font&gt;" style="rounded=1;whiteSpace=wrap;html=1;fillColor=#fff2cc;strokeColor=#d6b656;" parent="1" vertex="1">
          <mxGeometry x="1118" y="500" width="120" height="60" as="geometry" />
        </mxCell>
        <mxCell id="29zYwKRM0pQ-3oz3xek9-29" style="edgeStyle=orthogonalEdgeStyle;rounded=1;orthogonalLoop=1;jettySize=auto;html=1;strokeWidth=3;startArrow=classic;startFill=1;endArrow=none;endFill=0;fillColor=#d80073;strokeColor=#67AB9F;" parent="1" source="pXlnRN1fEk7zmC_KEz_S-4" edge="1">
          <mxGeometry relative="1" as="geometry">
            <mxPoint x="650" y="210" as="targetPoint" />
            <Array as="points">
              <mxPoint x="650" y="510" />
            </Array>
          </mxGeometry>
        </mxCell>
        <mxCell id="0LZvKdBmU08WbHENAA4L-42" value="&lt;font style=&quot;font-size: 9px;&quot;&gt;5 x 0.22 mm&lt;sup&gt;2&lt;/sup&gt;&lt;/font&gt;" style="edgeLabel;html=1;align=center;verticalAlign=middle;resizable=0;points=[];labelBackgroundColor=none;" parent="29zYwKRM0pQ-3oz3xek9-29" vertex="1" connectable="0">
          <mxGeometry x="-0.5767" y="-2" relative="1" as="geometry">
            <mxPoint x="-64" y="-12" as="offset" />
          </mxGeometry>
        </mxCell>
        <mxCell id="0LZvKdBmU08WbHENAA4L-55" value="&lt;font style=&quot;font-size: 9px;&quot;&gt;5 x 0.22 mm&lt;sup style=&quot;border-color: var(--border-color);&quot;&gt;2&lt;/sup&gt;&lt;/font&gt;" style="edgeLabel;html=1;align=center;verticalAlign=middle;resizable=0;points=[];labelBackgroundColor=none;" parent="29zYwKRM0pQ-3oz3xek9-29" vertex="1" connectable="0">
          <mxGeometry x="0.8874" y="2" relative="1" as="geometry">
            <mxPoint x="-33" y="-19" as="offset" />
          </mxGeometry>
        </mxCell>
        <mxCell id="29zYwKRM0pQ-3oz3xek9-358" style="edgeStyle=orthogonalEdgeStyle;rounded=1;orthogonalLoop=1;jettySize=auto;html=1;entryX=0.5;entryY=0;entryDx=0;entryDy=0;strokeColor=#666666;strokeWidth=3;fontSize=10;fontColor=#000000;startArrow=classic;startFill=1;endArrow=classic;endFill=1;fillColor=#f5f5f5;gradientColor=#b3b3b3;" parent="1" edge="1">
          <mxGeometry relative="1" as="geometry">
            <Array as="points" />
            <mxPoint x="379" y="560" as="sourcePoint" />
            <mxPoint x="379" y="665" as="targetPoint" />
          </mxGeometry>
        </mxCell>
        <mxCell id="pXlnRN1fEk7zmC_KEz_S-4" value="&lt;font style=&quot;font-size: 10px;&quot;&gt;Compute&lt;br&gt;Orange Pi 3LTS&lt;br&gt;5V, 2A,10W&lt;/font&gt;" style="rounded=1;whiteSpace=wrap;html=1;fillColor=#d5e8d4;strokeColor=#82b366;" parent="1" vertex="1">
          <mxGeometry x="320" y="500" width="120" height="60" as="geometry" />
        </mxCell>
        <mxCell id="29zYwKRM0pQ-3oz3xek9-8" style="edgeStyle=orthogonalEdgeStyle;orthogonalLoop=1;jettySize=auto;html=1;strokeWidth=3;rounded=1;" parent="1" target="pXlnRN1fEk7zmC_KEz_S-5" edge="1">
          <mxGeometry relative="1" as="geometry">
            <mxPoint x="550" y="530" as="sourcePoint" />
            <Array as="points">
              <mxPoint x="515" y="530" />
              <mxPoint x="515" y="680" />
            </Array>
          </mxGeometry>
        </mxCell>
        <mxCell id="0LZvKdBmU08WbHENAA4L-43" value="&lt;font style=&quot;font-size: 9px;&quot;&gt;2 x 0.35 mm&lt;sup&gt;2&lt;/sup&gt;&lt;/font&gt;" style="edgeLabel;html=1;align=center;verticalAlign=middle;resizable=0;points=[];labelBackgroundColor=none;" parent="29zYwKRM0pQ-3oz3xek9-8" vertex="1" connectable="0">
          <mxGeometry x="0.7455" relative="1" as="geometry">
            <mxPoint x="10" y="-9" as="offset" />
          </mxGeometry>
        </mxCell>
        <mxCell id="29zYwKRM0pQ-3oz3xek9-22" style="edgeStyle=orthogonalEdgeStyle;rounded=1;orthogonalLoop=1;jettySize=auto;html=1;entryX=1.004;entryY=0.332;entryDx=0;entryDy=0;strokeWidth=3;fillColor=#6a00ff;strokeColor=#3700CC;exitX=1.002;exitY=0.711;exitDx=0;exitDy=0;entryPerimeter=0;exitPerimeter=0;" parent="1" source="pXlnRN1fEk7zmC_KEz_S-5" target="pXlnRN1fEk7zmC_KEz_S-10" edge="1">
          <mxGeometry relative="1" as="geometry">
            <mxPoint x="440" y="620" as="sourcePoint" />
            <Array as="points">
              <mxPoint x="525" y="708" />
              <mxPoint x="525" y="540" />
              <mxPoint x="660" y="540" />
              <mxPoint x="660" y="757" />
              <mxPoint x="574" y="757" />
            </Array>
          </mxGeometry>
        </mxCell>
        <mxCell id="0LZvKdBmU08WbHENAA4L-54" value="&lt;font style=&quot;font-size: 9px;&quot;&gt;5 x 0.35 mm&lt;sup style=&quot;border-color: var(--border-color);&quot;&gt;2&lt;/sup&gt;&lt;/font&gt;" style="edgeLabel;html=1;align=center;verticalAlign=middle;resizable=0;points=[];labelBackgroundColor=none;" parent="29zYwKRM0pQ-3oz3xek9-22" vertex="1" connectable="0">
          <mxGeometry x="-0.9005" y="-1" relative="1" as="geometry">
            <mxPoint x="5" y="-9" as="offset" />
          </mxGeometry>
        </mxCell>
        <mxCell id="0LZvKdBmU08WbHENAA4L-56" value="&lt;font style=&quot;font-size: 9px;&quot;&gt;1 x 0.35 mm&lt;sup style=&quot;border-color: var(--border-color); font-size: 9px;&quot;&gt;2&lt;/sup&gt;&lt;/font&gt;" style="edgeLabel;html=1;align=center;verticalAlign=middle;resizable=0;points=[];labelBackgroundColor=none;fontSize=9;" parent="29zYwKRM0pQ-3oz3xek9-22" vertex="1" connectable="0">
          <mxGeometry x="0.9319" y="-1" relative="1" as="geometry">
            <mxPoint x="24" y="-8" as="offset" />
          </mxGeometry>
        </mxCell>
        <mxCell id="pXlnRN1fEk7zmC_KEz_S-5" value="&lt;font style=&quot;font-size: 10px;&quot;&gt;WLED&lt;br&gt;Olimex ESP32 POE&lt;br&gt;5V, 0.5A, 2.5W&lt;/font&gt;" style="rounded=1;whiteSpace=wrap;html=1;fillColor=#d5e8d4;strokeColor=#82b366;" parent="1" vertex="1">
          <mxGeometry x="320" y="665" width="120" height="60" as="geometry" />
        </mxCell>
        <mxCell id="29zYwKRM0pQ-3oz3xek9-338" style="edgeStyle=orthogonalEdgeStyle;rounded=1;orthogonalLoop=1;jettySize=auto;html=1;strokeColor=#000000;strokeWidth=3;fontSize=8;fontColor=#666666;startArrow=classic;startFill=1;endArrow=none;endFill=0;" parent="1" source="pXlnRN1fEk7zmC_KEz_S-10" edge="1">
          <mxGeometry relative="1" as="geometry">
            <mxPoint x="670" y="700" as="targetPoint" />
            <Array as="points">
              <mxPoint x="670" y="780" />
            </Array>
          </mxGeometry>
        </mxCell>
        <mxCell id="0LZvKdBmU08WbHENAA4L-59" value="&lt;font style=&quot;font-size: 9px;&quot;&gt;2 x 0.35 mm&lt;sup style=&quot;border-color: var(--border-color); font-size: 9px;&quot;&gt;2&lt;/sup&gt;&lt;/font&gt;" style="edgeLabel;html=1;align=center;verticalAlign=middle;resizable=0;points=[];labelBackgroundColor=none;fontSize=9;" parent="29zYwKRM0pQ-3oz3xek9-338" vertex="1" connectable="0">
          <mxGeometry x="-0.4191" relative="1" as="geometry">
            <mxPoint x="-2" y="-8" as="offset" />
          </mxGeometry>
        </mxCell>
        <mxCell id="pXlnRN1fEk7zmC_KEz_S-10" value="&lt;font style=&quot;font-size: 10px;&quot;&gt;Bottom servo (0)&lt;br&gt;JX W4505-4T&lt;br&gt;5V, 0.5A, 2.5 W&lt;br&gt;&lt;/font&gt;" style="rounded=1;whiteSpace=wrap;html=1;fillColor=#dae8fc;strokeColor=#6c8ebf;" parent="1" vertex="1">
          <mxGeometry x="453" y="737.5" width="120" height="60" as="geometry" />
        </mxCell>
        <mxCell id="29zYwKRM0pQ-3oz3xek9-13" style="edgeStyle=orthogonalEdgeStyle;rounded=1;orthogonalLoop=1;jettySize=auto;html=1;strokeWidth=3;" parent="1" target="pXlnRN1fEk7zmC_KEz_S-13" edge="1">
          <mxGeometry relative="1" as="geometry">
            <mxPoint x="670" y="289.9999999999998" as="sourcePoint" />
            <Array as="points">
              <mxPoint x="670" y="240" />
              <mxPoint x="370" y="240" />
            </Array>
          </mxGeometry>
        </mxCell>
        <mxCell id="0LZvKdBmU08WbHENAA4L-46" value="&lt;font style=&quot;font-size: 9px;&quot;&gt;2 x 0.35 mm&lt;sup&gt;2&lt;/sup&gt;&lt;/font&gt;" style="edgeLabel;html=1;align=center;verticalAlign=middle;resizable=0;points=[];labelBackgroundColor=none;" parent="29zYwKRM0pQ-3oz3xek9-13" vertex="1" connectable="0">
          <mxGeometry x="0.1912" y="-3" relative="1" as="geometry">
            <mxPoint x="-86" y="-7" as="offset" />
          </mxGeometry>
        </mxCell>
        <mxCell id="29zYwKRM0pQ-3oz3xek9-24" style="edgeStyle=orthogonalEdgeStyle;rounded=1;orthogonalLoop=1;jettySize=auto;html=1;exitX=0.25;exitY=1;exitDx=0;exitDy=0;strokeWidth=3;entryX=0.376;entryY=0.995;entryDx=0;entryDy=0;entryPerimeter=0;fillColor=#6a00ff;strokeColor=#3700CC;" parent="1" target="pXlnRN1fEk7zmC_KEz_S-13" edge="1">
          <mxGeometry relative="1" as="geometry">
            <mxPoint x="630" y="540" as="sourcePoint" />
            <Array as="points">
              <mxPoint x="660" y="540" />
              <mxPoint x="660" y="260" />
              <mxPoint x="355" y="260" />
            </Array>
          </mxGeometry>
        </mxCell>
        <mxCell id="0LZvKdBmU08WbHENAA4L-47" value="&lt;font style=&quot;font-size: 9px;&quot;&gt;1 x 0.35 mm&lt;sup style=&quot;border-color: var(--border-color);&quot;&gt;2&lt;/sup&gt;&lt;/font&gt;" style="edgeLabel;html=1;align=center;verticalAlign=middle;resizable=0;points=[];labelBackgroundColor=none;" parent="29zYwKRM0pQ-3oz3xek9-24" vertex="1" connectable="0">
          <mxGeometry x="0.4761" y="-1" relative="1" as="geometry">
            <mxPoint x="-72" y="-9" as="offset" />
          </mxGeometry>
        </mxCell>
        <mxCell id="pXlnRN1fEk7zmC_KEz_S-13" value="&lt;font style=&quot;font-size: 10px;&quot;&gt;Left servo (2)&lt;br&gt;JX W4505-4T&lt;br&gt;5V, 0.5A, 2.5 W&lt;br&gt;&lt;/font&gt;" style="rounded=1;whiteSpace=wrap;html=1;fillColor=#dae8fc;strokeColor=#6c8ebf;" parent="1" vertex="1">
          <mxGeometry x="310" y="150" width="120" height="60" as="geometry" />
        </mxCell>
        <mxCell id="29zYwKRM0pQ-3oz3xek9-14" style="edgeStyle=orthogonalEdgeStyle;rounded=1;orthogonalLoop=1;jettySize=auto;html=1;strokeWidth=3;" parent="1" target="pXlnRN1fEk7zmC_KEz_S-14" edge="1">
          <mxGeometry relative="1" as="geometry">
            <mxPoint x="670" y="289.9999999999998" as="sourcePoint" />
            <Array as="points">
              <mxPoint x="670" y="240" />
              <mxPoint x="940" y="240" />
            </Array>
          </mxGeometry>
        </mxCell>
        <mxCell id="0LZvKdBmU08WbHENAA4L-48" value="&lt;font style=&quot;font-size: 9px;&quot;&gt;2 x 0.35 mm&lt;sup style=&quot;border-color: var(--border-color);&quot;&gt;2&lt;/sup&gt;&lt;/font&gt;" style="edgeLabel;html=1;align=center;verticalAlign=middle;resizable=0;points=[];labelBackgroundColor=none;" parent="29zYwKRM0pQ-3oz3xek9-14" vertex="1" connectable="0">
          <mxGeometry x="0.0267" y="-1" relative="1" as="geometry">
            <mxPoint x="95" y="-11" as="offset" />
          </mxGeometry>
        </mxCell>
        <mxCell id="29zYwKRM0pQ-3oz3xek9-25" style="edgeStyle=orthogonalEdgeStyle;rounded=1;orthogonalLoop=1;jettySize=auto;html=1;strokeWidth=3;startArrow=classic;startFill=1;endArrow=none;endFill=0;fillColor=#6a00ff;strokeColor=#3700CC;" parent="1" source="pXlnRN1fEk7zmC_KEz_S-14" edge="1">
          <mxGeometry relative="1" as="geometry">
            <mxPoint x="660" y="290" as="targetPoint" />
            <Array as="points">
              <mxPoint x="955" y="260" />
              <mxPoint x="660" y="260" />
            </Array>
          </mxGeometry>
        </mxCell>
        <mxCell id="0LZvKdBmU08WbHENAA4L-49" value="&lt;font style=&quot;font-size: 9px;&quot;&gt;1 x 0.35 mm&lt;sup style=&quot;border-color: var(--border-color);&quot;&gt;2&lt;/sup&gt;&lt;/font&gt;" style="edgeLabel;html=1;align=center;verticalAlign=middle;resizable=0;points=[];labelBackgroundColor=none;" parent="29zYwKRM0pQ-3oz3xek9-25" vertex="1" connectable="0">
          <mxGeometry x="0.0714" y="1" relative="1" as="geometry">
            <mxPoint x="90" y="-11" as="offset" />
          </mxGeometry>
        </mxCell>
        <mxCell id="pXlnRN1fEk7zmC_KEz_S-14" value="&lt;font style=&quot;font-size: 10px;&quot;&gt;Right servo (1)&lt;br&gt;JX W4505-4T&lt;br&gt;5V, 0.5A, 2.5 W&lt;/font&gt;" style="rounded=1;whiteSpace=wrap;html=1;fillColor=#dae8fc;strokeColor=#6c8ebf;" parent="1" vertex="1">
          <mxGeometry x="895" y="150" width="120" height="60" as="geometry" />
        </mxCell>
        <mxCell id="29zYwKRM0pQ-3oz3xek9-27" style="edgeStyle=orthogonalEdgeStyle;rounded=1;orthogonalLoop=1;jettySize=auto;html=1;strokeWidth=3;startArrow=classic;startFill=1;endArrow=none;endFill=0;fillColor=#6a00ff;strokeColor=#3700CC;" parent="1" source="29zYwKRM0pQ-3oz3xek9-336" edge="1">
          <mxGeometry relative="1" as="geometry">
            <mxPoint x="660" y="350" as="targetPoint" />
            <mxPoint x="757" y="295" as="sourcePoint" />
            <Array as="points">
              <mxPoint x="660" y="300" />
            </Array>
          </mxGeometry>
        </mxCell>
        <mxCell id="0LZvKdBmU08WbHENAA4L-50" value="&lt;font style=&quot;font-size: 9px;&quot;&gt;1 x 0.35 mm&lt;sup style=&quot;border-color: var(--border-color);&quot;&gt;2&lt;/sup&gt;&lt;/font&gt;" style="edgeLabel;html=1;align=center;verticalAlign=middle;resizable=0;points=[];labelBackgroundColor=none;" parent="29zYwKRM0pQ-3oz3xek9-27" vertex="1" connectable="0">
          <mxGeometry x="-0.6524" y="-1" relative="1" as="geometry">
            <mxPoint x="40" y="-9" as="offset" />
          </mxGeometry>
        </mxCell>
        <mxCell id="29zYwKRM0pQ-3oz3xek9-23" style="edgeStyle=orthogonalEdgeStyle;rounded=1;orthogonalLoop=1;jettySize=auto;html=1;strokeWidth=3;fillColor=#6a00ff;strokeColor=#3700CC;entryX=1;entryY=0.324;entryDx=0;entryDy=0;entryPerimeter=0;" parent="1" target="pXlnRN1fEk7zmC_KEz_S-17" edge="1">
          <mxGeometry relative="1" as="geometry">
            <mxPoint x="660" y="700" as="sourcePoint" />
            <Array as="points">
              <mxPoint x="660" y="880" />
              <mxPoint x="620" y="880" />
            </Array>
          </mxGeometry>
        </mxCell>
        <mxCell id="0LZvKdBmU08WbHENAA4L-60" value="&lt;font style=&quot;font-size: 9px;&quot;&gt;1 x 0.35 mm&lt;sup style=&quot;border-color: var(--border-color); font-size: 9px;&quot;&gt;2&lt;/sup&gt;&lt;/font&gt;" style="edgeLabel;html=1;align=center;verticalAlign=middle;resizable=0;points=[];labelBackgroundColor=none;fontSize=9;" parent="29zYwKRM0pQ-3oz3xek9-23" vertex="1" connectable="0">
          <mxGeometry x="0.6987" y="2" relative="1" as="geometry">
            <mxPoint x="6" y="-11" as="offset" />
          </mxGeometry>
        </mxCell>
        <mxCell id="pXlnRN1fEk7zmC_KEz_S-17" value="&lt;font style=&quot;font-size: 10px;&quot;&gt;Backlight LEDs (60/m)&lt;br&gt;WS1812B, 133 LEDs&lt;br&gt;5V, 6.7A, 34 W&lt;br&gt;&lt;/font&gt;" style="rounded=1;whiteSpace=wrap;html=1;fillColor=#fad9d5;strokeColor=#ae4132;" parent="1" vertex="1">
          <mxGeometry x="453" y="860" width="120" height="60" as="geometry" />
        </mxCell>
        <mxCell id="29zYwKRM0pQ-3oz3xek9-2" style="edgeStyle=orthogonalEdgeStyle;rounded=1;orthogonalLoop=1;jettySize=auto;html=1;entryX=0.5;entryY=1;entryDx=0;entryDy=0;strokeWidth=3;strokeColor=#CC00CC;" parent="1" source="pXlnRN1fEk7zmC_KEz_S-18" target="pXlnRN1fEk7zmC_KEz_S-1" edge="1">
          <mxGeometry relative="1" as="geometry" />
        </mxCell>
        <mxCell id="pXlnRN1fEk7zmC_KEz_S-18" value="&lt;span style=&quot;font-size: 10px;&quot;&gt;Grid&lt;br&gt;220V / 110V&lt;/span&gt;" style="rounded=1;whiteSpace=wrap;html=1;fillColor=#ffcc99;strokeColor=#36393d;" parent="1" vertex="1">
          <mxGeometry x="757" y="859.5" width="120" height="60" as="geometry" />
        </mxCell>
        <mxCell id="pXlnRN1fEk7zmC_KEz_S-19" value="&lt;font style=&quot;font-size: 10px;&quot;&gt;Encoder&lt;br&gt;Custom PCB&lt;br&gt;5V, 0.5A, 2.5 W&lt;/font&gt;" style="rounded=1;whiteSpace=wrap;html=1;fillColor=#d5e8d4;strokeColor=#82b366;" parent="1" vertex="1">
          <mxGeometry x="610" y="150" width="120" height="60" as="geometry" />
        </mxCell>
        <mxCell id="pXlnRN1fEk7zmC_KEz_S-55" value="&lt;div style=&quot;&quot;&gt;&lt;span style=&quot;font-size: 12px; background-color: initial;&quot;&gt;&lt;b&gt;&lt;u&gt;Wiring sizes:&lt;/u&gt;&lt;/b&gt;&lt;/span&gt;&lt;/div&gt;&lt;font style=&quot;font-size: 12px;&quot;&gt;&lt;div style=&quot;&quot;&gt;&lt;span style=&quot;background-color: initial;&quot;&gt;&amp;nbsp; &amp;nbsp; 0.22 mm&lt;/span&gt;&lt;sup style=&quot;background-color: initial;&quot;&gt;2&lt;/sup&gt;&lt;span style=&quot;background-color: initial;&quot;&gt; - 2 A&lt;/span&gt;&lt;/div&gt;&lt;div style=&quot;&quot;&gt;&lt;span style=&quot;background-color: initial;&quot;&gt;&amp;nbsp; &amp;nbsp; 0.35 mm&lt;/span&gt;&lt;sup style=&quot;background-color: initial; border-color: var(--border-color);&quot;&gt;2&lt;/sup&gt;&lt;span style=&quot;background-color: initial; border-color: var(--border-color);&quot;&gt; - 3A&lt;/span&gt;&lt;/div&gt;&lt;div style=&quot;&quot;&gt;&lt;span style=&quot;background-color: initial;&quot;&gt;&amp;nbsp; &amp;nbsp; 0.50 mm&lt;/span&gt;&lt;sup style=&quot;background-color: initial; border-color: var(--border-color);&quot;&gt;2&lt;/sup&gt;&lt;span style=&quot;background-color: initial; border-color: var(--border-color);&quot;&gt; - 5 A&lt;/span&gt;&lt;/div&gt;&lt;div style=&quot;&quot;&gt;&lt;span style=&quot;background-color: initial;&quot;&gt;&amp;nbsp; &amp;nbsp; 0.75 mm&lt;/span&gt;&lt;sup style=&quot;background-color: initial; border-color: var(--border-color);&quot;&gt;2&lt;/sup&gt;&lt;span style=&quot;background-color: initial; border-color: var(--border-color);&quot;&gt; - 7 A&lt;/span&gt;&lt;/div&gt;&lt;/font&gt;" style="rounded=0;whiteSpace=wrap;html=1;fontSize=10;align=left;spacingLeft=10;" parent="1" vertex="1">
          <mxGeometry x="81" y="290" width="214" height="95" as="geometry" />
        </mxCell>
        <mxCell id="29zYwKRM0pQ-3oz3xek9-15" value="&lt;font style=&quot;font-size: 10px;&quot;&gt;Speaker&lt;br&gt;&lt;span style=&quot;font-size: 10px;&quot;&gt;Alpine SXE-0825S&lt;/span&gt;&lt;br&gt;&lt;span style=&quot;font-size: 10px;&quot;&gt;20/150 W&lt;/span&gt;&lt;br&gt;&lt;/font&gt;" style="rounded=1;whiteSpace=wrap;html=1;fillColor=#fff2cc;strokeColor=#d6b656;" parent="1" vertex="1">
          <mxGeometry x="320" y="340" width="120" height="60" as="geometry" />
        </mxCell>
        <mxCell id="29zYwKRM0pQ-3oz3xek9-16" value="&lt;font style=&quot;&quot;&gt;&lt;font style=&quot;font-size: 10px;&quot;&gt;Speaker&lt;/font&gt;&lt;br&gt;&lt;span style=&quot;font-size: 10px;&quot;&gt;Alpine SXE-0825S&lt;/span&gt;&lt;br&gt;&lt;span style=&quot;font-size: 10px;&quot;&gt;20/150 W&lt;/span&gt;&lt;br&gt;&lt;/font&gt;" style="rounded=1;whiteSpace=wrap;html=1;fillColor=#fff2cc;strokeColor=#d6b656;" parent="1" vertex="1">
          <mxGeometry x="905" y="340" width="120" height="60" as="geometry" />
        </mxCell>
        <mxCell id="29zYwKRM0pQ-3oz3xek9-36" value="&lt;font style=&quot;font-size: 10px;&quot;&gt;5V_SML&lt;/font&gt;" style="text;html=1;strokeColor=none;fillColor=none;align=left;verticalAlign=middle;whiteSpace=wrap;rounded=0;" parent="1" vertex="1">
          <mxGeometry x="355" y="110" width="60" height="10" as="geometry" />
        </mxCell>
        <mxCell id="29zYwKRM0pQ-3oz3xek9-37" value="&lt;font style=&quot;font-size: 10px;&quot;&gt;GND_SML&lt;/font&gt;" style="text;html=1;strokeColor=none;fillColor=none;align=left;verticalAlign=middle;whiteSpace=wrap;rounded=0;" parent="1" vertex="1">
          <mxGeometry x="355" y="120" width="60" height="10" as="geometry" />
        </mxCell>
        <mxCell id="29zYwKRM0pQ-3oz3xek9-38" value="&lt;font style=&quot;font-size: 10px;&quot;&gt;PWM_SML&lt;/font&gt;" style="text;html=1;strokeColor=none;fillColor=none;align=left;verticalAlign=middle;whiteSpace=wrap;rounded=0;" parent="1" vertex="1">
          <mxGeometry x="355" y="130" width="60" height="10" as="geometry" />
        </mxCell>
        <mxCell id="29zYwKRM0pQ-3oz3xek9-42" value="dupont 1x3 M" style="text;html=1;strokeColor=none;fillColor=none;align=left;verticalAlign=middle;whiteSpace=wrap;rounded=0;fontSize=10;" parent="1" vertex="1">
          <mxGeometry x="330" y="95" width="115" height="10" as="geometry" />
        </mxCell>
        <mxCell id="29zYwKRM0pQ-3oz3xek9-47" value="" style="rounded=0;whiteSpace=wrap;html=1;fontSize=10;fillColor=#666666;strokeColor=none;" parent="1" vertex="1">
          <mxGeometry x="330" y="110" width="10" height="30" as="geometry" />
        </mxCell>
        <mxCell id="29zYwKRM0pQ-3oz3xek9-59" value="&lt;font style=&quot;font-size: 10px;&quot;&gt;GND_ENC&lt;/font&gt;" style="text;html=1;strokeColor=none;fillColor=none;align=left;verticalAlign=middle;whiteSpace=wrap;rounded=0;" parent="1" vertex="1">
          <mxGeometry x="695" y="100" width="60" height="10" as="geometry" />
        </mxCell>
        <mxCell id="29zYwKRM0pQ-3oz3xek9-60" value="&lt;span style=&quot;font-size: 10px;&quot;&gt;D2_ENC&lt;/span&gt;" style="text;html=1;strokeColor=none;fillColor=none;align=left;verticalAlign=middle;whiteSpace=wrap;rounded=0;" parent="1" vertex="1">
          <mxGeometry x="695" y="110" width="60" height="10" as="geometry" />
        </mxCell>
        <mxCell id="29zYwKRM0pQ-3oz3xek9-61" value="&lt;font style=&quot;font-size: 10px;&quot;&gt;D4_ENC&lt;/font&gt;" style="text;html=1;strokeColor=none;fillColor=none;align=left;verticalAlign=middle;whiteSpace=wrap;rounded=0;" parent="1" vertex="1">
          <mxGeometry x="695" y="120" width="60" height="10" as="geometry" />
        </mxCell>
        <mxCell id="29zYwKRM0pQ-3oz3xek9-65" value="" style="rounded=0;whiteSpace=wrap;html=1;fontSize=10;fillColor=#666666;strokeColor=none;" parent="1" vertex="1">
          <mxGeometry x="660" y="100" width="20" height="40" as="geometry" />
        </mxCell>
        <mxCell id="29zYwKRM0pQ-3oz3xek9-86" value="&lt;font style=&quot;font-size: 10px;&quot;&gt;5V_ENC&lt;/font&gt;" style="text;html=1;strokeColor=none;fillColor=none;align=right;verticalAlign=middle;whiteSpace=wrap;rounded=0;" parent="1" vertex="1">
          <mxGeometry x="585" y="100" width="60" height="10" as="geometry" />
        </mxCell>
        <mxCell id="29zYwKRM0pQ-3oz3xek9-87" value="&lt;font style=&quot;font-size: 10px;&quot;&gt;D1_ENC&lt;/font&gt;" style="text;html=1;strokeColor=none;fillColor=none;align=right;verticalAlign=middle;whiteSpace=wrap;rounded=0;" parent="1" vertex="1">
          <mxGeometry x="585" y="110" width="60" height="10" as="geometry" />
        </mxCell>
        <mxCell id="29zYwKRM0pQ-3oz3xek9-88" value="&lt;font style=&quot;font-size: 10px;&quot;&gt;D3_ENC&lt;/font&gt;" style="text;html=1;strokeColor=none;fillColor=none;align=right;verticalAlign=middle;whiteSpace=wrap;rounded=0;" parent="1" vertex="1">
          <mxGeometry x="585" y="120" width="60" height="10" as="geometry" />
        </mxCell>
        <mxCell id="29zYwKRM0pQ-3oz3xek9-89" value="&lt;font style=&quot;font-size: 10px;&quot;&gt;D5_ENC&lt;/font&gt;" style="text;html=1;strokeColor=none;fillColor=none;align=right;verticalAlign=middle;whiteSpace=wrap;rounded=0;" parent="1" vertex="1">
          <mxGeometry x="585" y="130" width="60" height="10" as="geometry" />
        </mxCell>
        <mxCell id="29zYwKRM0pQ-3oz3xek9-90" value="" style="endArrow=none;html=1;rounded=1;strokeColor=#FFFFFF;strokeWidth=1;fontSize=10;entryX=0.5;entryY=0;entryDx=0;entryDy=0;exitX=0.5;exitY=1;exitDx=0;exitDy=0;" parent="1" source="29zYwKRM0pQ-3oz3xek9-65" edge="1">
          <mxGeometry width="50" height="50" relative="1" as="geometry">
            <mxPoint x="670" y="130" as="sourcePoint" />
            <mxPoint x="670" y="100" as="targetPoint" />
          </mxGeometry>
        </mxCell>
        <mxCell id="29zYwKRM0pQ-3oz3xek9-91" value="dupont 2x4 F" style="text;html=1;strokeColor=none;fillColor=none;align=center;verticalAlign=middle;whiteSpace=wrap;rounded=0;fontSize=10;" parent="1" vertex="1">
          <mxGeometry x="612.5" y="82" width="115" height="20" as="geometry" />
        </mxCell>
        <mxCell id="29zYwKRM0pQ-3oz3xek9-113" value="" style="rounded=0;whiteSpace=wrap;html=1;fontSize=10;fillColor=#666666;strokeColor=none;" parent="1" vertex="1">
          <mxGeometry x="181" y="479" width="20" height="130" as="geometry" />
        </mxCell>
        <mxCell id="29zYwKRM0pQ-3oz3xek9-119" value="dupont 2x13 F" style="text;html=1;strokeColor=none;fillColor=none;align=center;verticalAlign=middle;whiteSpace=wrap;rounded=0;fontSize=10;" parent="1" vertex="1">
          <mxGeometry x="133.5" y="459" width="115" height="20" as="geometry" />
        </mxCell>
        <mxCell id="29zYwKRM0pQ-3oz3xek9-157" value="&lt;font style=&quot;font-size: 10px;&quot;&gt;D2_ENC (PH5)&lt;/font&gt;" style="text;html=1;strokeColor=none;fillColor=none;align=right;verticalAlign=middle;whiteSpace=wrap;rounded=0;" parent="1" vertex="1">
          <mxGeometry x="80" y="569" width="86" height="10" as="geometry" />
        </mxCell>
        <mxCell id="29zYwKRM0pQ-3oz3xek9-158" value="&lt;font style=&quot;font-size: 10px;&quot;&gt;D3_ENC (PH6)&lt;/font&gt;" style="text;html=1;strokeColor=none;fillColor=none;align=right;verticalAlign=middle;whiteSpace=wrap;rounded=0;" parent="1" vertex="1">
          <mxGeometry x="80" y="579" width="86" height="10" as="geometry" />
        </mxCell>
        <mxCell id="29zYwKRM0pQ-3oz3xek9-159" value="&lt;font style=&quot;font-size: 10px;&quot;&gt;D4_ENC (PH4)&lt;/font&gt;" style="text;html=1;strokeColor=none;fillColor=none;align=right;verticalAlign=middle;whiteSpace=wrap;rounded=0;" parent="1" vertex="1">
          <mxGeometry x="80" y="589" width="86" height="10" as="geometry" />
        </mxCell>
        <mxCell id="29zYwKRM0pQ-3oz3xek9-161" value="&lt;font style=&quot;font-size: 10px;&quot;&gt;D1_ENC (PL10)&lt;/font&gt;" style="text;html=1;strokeColor=none;fillColor=none;align=right;verticalAlign=middle;whiteSpace=wrap;rounded=0;" parent="1" vertex="1">
          <mxGeometry x="80" y="549" width="86" height="10" as="geometry" />
        </mxCell>
        <mxCell id="29zYwKRM0pQ-3oz3xek9-163" value="" style="rounded=0;whiteSpace=wrap;html=1;fontSize=10;fillColor=#666666;strokeColor=none;" parent="1" vertex="1">
          <mxGeometry x="170" y="656.5" width="10" height="100" as="geometry" />
        </mxCell>
        <mxCell id="29zYwKRM0pQ-3oz3xek9-165" value="2x dupont 1x10 F" style="text;html=1;strokeColor=none;fillColor=none;align=center;verticalAlign=middle;whiteSpace=wrap;rounded=0;fontSize=10;" parent="1" vertex="1">
          <mxGeometry x="137.5" y="636.5" width="115" height="20" as="geometry" />
        </mxCell>
        <mxCell id="29zYwKRM0pQ-3oz3xek9-194" value="&lt;font style=&quot;font-size: 10px;&quot;&gt;LED_BL (IO5)&lt;/font&gt;" style="text;html=1;strokeColor=none;fillColor=none;align=right;verticalAlign=middle;whiteSpace=wrap;rounded=0;" parent="1" vertex="1">
          <mxGeometry x="70" y="746.5" width="85" height="10" as="geometry" />
        </mxCell>
        <mxCell id="29zYwKRM0pQ-3oz3xek9-200" value="&lt;font style=&quot;font-size: 10px;&quot;&gt;5V_WLED&lt;/font&gt;" style="text;html=1;strokeColor=none;fillColor=none;align=right;verticalAlign=middle;whiteSpace=wrap;rounded=0;" parent="1" vertex="1">
          <mxGeometry x="95" y="656.5" width="60" height="10" as="geometry" />
        </mxCell>
        <mxCell id="29zYwKRM0pQ-3oz3xek9-201" value="&lt;font style=&quot;font-size: 10px;&quot;&gt;GND_WLED&lt;/font&gt;" style="text;html=1;strokeColor=none;fillColor=none;align=right;verticalAlign=middle;whiteSpace=wrap;rounded=0;" parent="1" vertex="1">
          <mxGeometry x="95" y="676.5" width="60" height="10" as="geometry" />
        </mxCell>
        <mxCell id="29zYwKRM0pQ-3oz3xek9-202" value="&lt;font style=&quot;font-size: 10px;&quot;&gt;LED_LOGO (IO4)&lt;/font&gt;" style="text;html=1;strokeColor=none;fillColor=none;align=right;verticalAlign=middle;whiteSpace=wrap;rounded=0;" parent="1" vertex="1">
          <mxGeometry x="40" y="736.5" width="115" height="10" as="geometry" />
        </mxCell>
        <mxCell id="29zYwKRM0pQ-3oz3xek9-204" value="" style="rounded=0;whiteSpace=wrap;html=1;fontSize=8;fontColor=#666666;fillColor=none;" parent="1" vertex="1">
          <mxGeometry x="172" y="658.5" width="6" height="6" as="geometry" />
        </mxCell>
        <mxCell id="29zYwKRM0pQ-3oz3xek9-207" value="" style="rounded=0;whiteSpace=wrap;html=1;fontSize=8;fontColor=#666666;fillColor=none;" parent="1" vertex="1">
          <mxGeometry x="172" y="668.5" width="6" height="6" as="geometry" />
        </mxCell>
        <mxCell id="29zYwKRM0pQ-3oz3xek9-209" value="" style="rounded=0;whiteSpace=wrap;html=1;fontSize=8;fontColor=#666666;fillColor=none;" parent="1" vertex="1">
          <mxGeometry x="172" y="678.5" width="6" height="6" as="geometry" />
        </mxCell>
        <mxCell id="29zYwKRM0pQ-3oz3xek9-210" value="" style="rounded=0;whiteSpace=wrap;html=1;fontSize=8;fontColor=#666666;fillColor=none;" parent="1" vertex="1">
          <mxGeometry x="172" y="688.5" width="6" height="6" as="geometry" />
        </mxCell>
        <mxCell id="29zYwKRM0pQ-3oz3xek9-211" value="" style="rounded=0;whiteSpace=wrap;html=1;fontSize=8;fontColor=#666666;fillColor=none;" parent="1" vertex="1">
          <mxGeometry x="172" y="698.5" width="6" height="6" as="geometry" />
        </mxCell>
        <mxCell id="29zYwKRM0pQ-3oz3xek9-212" value="" style="rounded=0;whiteSpace=wrap;html=1;fontSize=8;fontColor=#666666;fillColor=none;" parent="1" vertex="1">
          <mxGeometry x="172" y="708.5" width="6" height="6" as="geometry" />
        </mxCell>
        <mxCell id="29zYwKRM0pQ-3oz3xek9-213" value="" style="rounded=0;whiteSpace=wrap;html=1;fontSize=8;fontColor=#666666;fillColor=none;" parent="1" vertex="1">
          <mxGeometry x="172" y="719" width="6" height="5.5" as="geometry" />
        </mxCell>
        <mxCell id="29zYwKRM0pQ-3oz3xek9-214" value="" style="rounded=0;whiteSpace=wrap;html=1;fontSize=8;fontColor=#666666;fillColor=none;" parent="1" vertex="1">
          <mxGeometry x="172" y="728.5" width="6" height="6" as="geometry" />
        </mxCell>
        <mxCell id="29zYwKRM0pQ-3oz3xek9-215" value="" style="rounded=0;whiteSpace=wrap;html=1;fontSize=8;fontColor=#666666;fillColor=none;" parent="1" vertex="1">
          <mxGeometry x="172" y="738.5" width="6" height="6" as="geometry" />
        </mxCell>
        <mxCell id="29zYwKRM0pQ-3oz3xek9-216" value="" style="rounded=0;whiteSpace=wrap;html=1;fontSize=8;fontColor=#666666;fillColor=none;" parent="1" vertex="1">
          <mxGeometry x="172" y="748.5" width="6" height="6" as="geometry" />
        </mxCell>
        <mxCell id="29zYwKRM0pQ-3oz3xek9-166" value="" style="endArrow=none;html=1;rounded=1;strokeWidth=3;fontSize=10;fillColor=#e51400;strokeColor=#FF0000;fontColor=#CCCC00;" parent="1" edge="1">
          <mxGeometry width="50" height="50" relative="1" as="geometry">
            <mxPoint x="155" y="661.5" as="sourcePoint" />
            <mxPoint x="175" y="661.5" as="targetPoint" />
          </mxGeometry>
        </mxCell>
        <mxCell id="29zYwKRM0pQ-3oz3xek9-168" value="" style="endArrow=none;html=1;rounded=1;strokeWidth=3;fontSize=10;fillColor=#e51400;strokeColor=#000000;fontColor=#CCCC00;" parent="1" edge="1">
          <mxGeometry width="50" height="50" relative="1" as="geometry">
            <mxPoint x="155" y="681.5" as="sourcePoint" />
            <mxPoint x="175" y="681.5" as="targetPoint" />
          </mxGeometry>
        </mxCell>
        <mxCell id="29zYwKRM0pQ-3oz3xek9-174" value="" style="endArrow=none;html=1;rounded=1;strokeWidth=3;fontSize=10;fillColor=#e51400;strokeColor=#00994D;fontColor=#CCCC00;" parent="1" edge="1">
          <mxGeometry width="50" height="50" relative="1" as="geometry">
            <mxPoint x="155" y="741.5" as="sourcePoint" />
            <mxPoint x="175" y="741.5" as="targetPoint" />
          </mxGeometry>
        </mxCell>
        <mxCell id="29zYwKRM0pQ-3oz3xek9-175" value="" style="endArrow=none;html=1;rounded=1;strokeWidth=3;fontSize=10;fillColor=#e51400;strokeColor=#00994D;fontColor=#CCCC00;" parent="1" edge="1">
          <mxGeometry width="50" height="50" relative="1" as="geometry">
            <mxPoint x="155" y="751.5" as="sourcePoint" />
            <mxPoint x="175" y="751.5" as="targetPoint" />
          </mxGeometry>
        </mxCell>
        <mxCell id="29zYwKRM0pQ-3oz3xek9-217" value="" style="rounded=0;whiteSpace=wrap;html=1;fontSize=10;fillColor=#666666;strokeColor=none;" parent="1" vertex="1">
          <mxGeometry x="205" y="656.5" width="10" height="100" as="geometry" />
        </mxCell>
        <mxCell id="29zYwKRM0pQ-3oz3xek9-222" value="" style="rounded=0;whiteSpace=wrap;html=1;fontSize=8;fontColor=#666666;fillColor=none;" parent="1" vertex="1">
          <mxGeometry x="207" y="658.5" width="6" height="6" as="geometry" />
        </mxCell>
        <mxCell id="29zYwKRM0pQ-3oz3xek9-223" value="" style="rounded=0;whiteSpace=wrap;html=1;fontSize=8;fontColor=#666666;fillColor=none;" parent="1" vertex="1">
          <mxGeometry x="207" y="668.5" width="6" height="6" as="geometry" />
        </mxCell>
        <mxCell id="29zYwKRM0pQ-3oz3xek9-224" value="" style="rounded=0;whiteSpace=wrap;html=1;fontSize=8;fontColor=#666666;fillColor=none;" parent="1" vertex="1">
          <mxGeometry x="207" y="678.5" width="6" height="6" as="geometry" />
        </mxCell>
        <mxCell id="29zYwKRM0pQ-3oz3xek9-225" value="" style="rounded=0;whiteSpace=wrap;html=1;fontSize=8;fontColor=#666666;fillColor=none;" parent="1" vertex="1">
          <mxGeometry x="207" y="688.5" width="6" height="6" as="geometry" />
        </mxCell>
        <mxCell id="29zYwKRM0pQ-3oz3xek9-226" value="" style="rounded=0;whiteSpace=wrap;html=1;fontSize=8;fontColor=#666666;fillColor=none;" parent="1" vertex="1">
          <mxGeometry x="207" y="698.5" width="6" height="6" as="geometry" />
        </mxCell>
        <mxCell id="29zYwKRM0pQ-3oz3xek9-227" value="" style="rounded=0;whiteSpace=wrap;html=1;fontSize=8;fontColor=#666666;fillColor=none;" parent="1" vertex="1">
          <mxGeometry x="207" y="708.5" width="6" height="6" as="geometry" />
        </mxCell>
        <mxCell id="29zYwKRM0pQ-3oz3xek9-228" value="" style="rounded=0;whiteSpace=wrap;html=1;fontSize=8;fontColor=#666666;fillColor=none;" parent="1" vertex="1">
          <mxGeometry x="207" y="719" width="6" height="5.5" as="geometry" />
        </mxCell>
        <mxCell id="29zYwKRM0pQ-3oz3xek9-229" value="" style="rounded=0;whiteSpace=wrap;html=1;fontSize=8;fontColor=#666666;fillColor=none;" parent="1" vertex="1">
          <mxGeometry x="207" y="728.5" width="6" height="6" as="geometry" />
        </mxCell>
        <mxCell id="29zYwKRM0pQ-3oz3xek9-230" value="" style="rounded=0;whiteSpace=wrap;html=1;fontSize=8;fontColor=#666666;fillColor=none;" parent="1" vertex="1">
          <mxGeometry x="207" y="738.5" width="6" height="6" as="geometry" />
        </mxCell>
        <mxCell id="29zYwKRM0pQ-3oz3xek9-231" value="" style="rounded=0;whiteSpace=wrap;html=1;fontSize=8;fontColor=#666666;fillColor=none;" parent="1" vertex="1">
          <mxGeometry x="207" y="748.5" width="6" height="6" as="geometry" />
        </mxCell>
        <mxCell id="29zYwKRM0pQ-3oz3xek9-237" value="" style="endArrow=none;html=1;rounded=1;strokeWidth=3;fontSize=10;fillColor=#e51400;strokeColor=#3333FF;fontColor=#CCCC00;" parent="1" edge="1">
          <mxGeometry width="50" height="50" relative="1" as="geometry">
            <mxPoint x="210" y="751.5" as="sourcePoint" />
            <mxPoint x="230" y="751.5" as="targetPoint" />
          </mxGeometry>
        </mxCell>
        <mxCell id="29zYwKRM0pQ-3oz3xek9-238" value="" style="endArrow=none;html=1;rounded=1;strokeWidth=3;fontSize=10;fillColor=#e51400;strokeColor=#3333FF;fontColor=#CCCC00;" parent="1" edge="1">
          <mxGeometry width="50" height="50" relative="1" as="geometry">
            <mxPoint x="210" y="741.47" as="sourcePoint" />
            <mxPoint x="230" y="741.47" as="targetPoint" />
          </mxGeometry>
        </mxCell>
        <mxCell id="29zYwKRM0pQ-3oz3xek9-239" value="" style="endArrow=none;html=1;rounded=1;strokeWidth=3;fontSize=10;fillColor=#e51400;strokeColor=#3333FF;fontColor=#CCCC00;" parent="1" edge="1">
          <mxGeometry width="50" height="50" relative="1" as="geometry">
            <mxPoint x="210" y="731.5000000000002" as="sourcePoint" />
            <mxPoint x="230" y="731.5000000000002" as="targetPoint" />
          </mxGeometry>
        </mxCell>
        <mxCell id="29zYwKRM0pQ-3oz3xek9-240" value="&lt;font style=&quot;font-size: 10px;&quot;&gt;PWM_SML (IO15)&lt;/font&gt;" style="text;html=1;strokeColor=none;fillColor=none;align=left;verticalAlign=middle;whiteSpace=wrap;rounded=0;" parent="1" vertex="1">
          <mxGeometry x="230" y="726.5" width="100" height="10" as="geometry" />
        </mxCell>
        <mxCell id="29zYwKRM0pQ-3oz3xek9-241" value="&lt;font style=&quot;font-size: 10px;&quot;&gt;PWM_SMR (IO14)&lt;/font&gt;" style="text;html=1;strokeColor=none;fillColor=none;align=left;verticalAlign=middle;whiteSpace=wrap;rounded=0;" parent="1" vertex="1">
          <mxGeometry x="230" y="736.5" width="110" height="10" as="geometry" />
        </mxCell>
        <mxCell id="29zYwKRM0pQ-3oz3xek9-242" value="&lt;font style=&quot;font-size: 10px;&quot;&gt;PWM_SMB (IO13)&lt;/font&gt;" style="text;html=1;strokeColor=none;fillColor=none;align=left;verticalAlign=middle;whiteSpace=wrap;rounded=0;" parent="1" vertex="1">
          <mxGeometry x="230" y="746.5" width="95" height="10" as="geometry" />
        </mxCell>
        <mxCell id="29zYwKRM0pQ-3oz3xek9-243" value="" style="rounded=0;whiteSpace=wrap;html=1;fontSize=8;fontColor=#666666;fillColor=none;" parent="1" vertex="1">
          <mxGeometry x="193" y="481" width="6" height="6" as="geometry" />
        </mxCell>
        <mxCell id="29zYwKRM0pQ-3oz3xek9-244" value="" style="rounded=0;whiteSpace=wrap;html=1;fontSize=8;fontColor=#666666;fillColor=none;" parent="1" vertex="1">
          <mxGeometry x="193" y="491" width="6" height="6" as="geometry" />
        </mxCell>
        <mxCell id="29zYwKRM0pQ-3oz3xek9-245" value="" style="rounded=0;whiteSpace=wrap;html=1;fontSize=8;fontColor=#666666;fillColor=none;" parent="1" vertex="1">
          <mxGeometry x="193" y="501" width="6" height="6" as="geometry" />
        </mxCell>
        <mxCell id="29zYwKRM0pQ-3oz3xek9-246" value="" style="rounded=0;whiteSpace=wrap;html=1;fontSize=8;fontColor=#666666;fillColor=none;" parent="1" vertex="1">
          <mxGeometry x="193" y="511" width="6" height="6" as="geometry" />
        </mxCell>
        <mxCell id="29zYwKRM0pQ-3oz3xek9-247" value="" style="rounded=0;whiteSpace=wrap;html=1;fontSize=8;fontColor=#666666;fillColor=none;" parent="1" vertex="1">
          <mxGeometry x="193" y="521" width="6" height="6" as="geometry" />
        </mxCell>
        <mxCell id="29zYwKRM0pQ-3oz3xek9-248" value="" style="rounded=0;whiteSpace=wrap;html=1;fontSize=8;fontColor=#666666;fillColor=none;" parent="1" vertex="1">
          <mxGeometry x="193" y="531" width="6" height="6" as="geometry" />
        </mxCell>
        <mxCell id="29zYwKRM0pQ-3oz3xek9-249" value="" style="rounded=0;whiteSpace=wrap;html=1;fontSize=8;fontColor=#666666;fillColor=none;" parent="1" vertex="1">
          <mxGeometry x="193" y="541" width="6" height="6" as="geometry" />
        </mxCell>
        <mxCell id="29zYwKRM0pQ-3oz3xek9-250" value="" style="rounded=0;whiteSpace=wrap;html=1;fontSize=8;fontColor=#666666;fillColor=none;" parent="1" vertex="1">
          <mxGeometry x="193" y="551" width="6" height="6" as="geometry" />
        </mxCell>
        <mxCell id="29zYwKRM0pQ-3oz3xek9-251" value="" style="rounded=0;whiteSpace=wrap;html=1;fontSize=8;fontColor=#666666;fillColor=none;" parent="1" vertex="1">
          <mxGeometry x="193" y="561" width="6" height="6" as="geometry" />
        </mxCell>
        <mxCell id="29zYwKRM0pQ-3oz3xek9-252" value="" style="rounded=0;whiteSpace=wrap;html=1;fontSize=8;fontColor=#666666;fillColor=none;" parent="1" vertex="1">
          <mxGeometry x="193" y="571" width="6" height="6" as="geometry" />
        </mxCell>
        <mxCell id="29zYwKRM0pQ-3oz3xek9-253" value="" style="rounded=0;whiteSpace=wrap;html=1;fontSize=8;fontColor=#666666;fillColor=none;" parent="1" vertex="1">
          <mxGeometry x="193" y="581" width="6" height="6" as="geometry" />
        </mxCell>
        <mxCell id="29zYwKRM0pQ-3oz3xek9-254" value="" style="rounded=0;whiteSpace=wrap;html=1;fontSize=8;fontColor=#666666;fillColor=none;" parent="1" vertex="1">
          <mxGeometry x="193" y="591" width="6" height="6" as="geometry" />
        </mxCell>
        <mxCell id="29zYwKRM0pQ-3oz3xek9-255" value="" style="rounded=0;whiteSpace=wrap;html=1;fontSize=8;fontColor=#666666;fillColor=none;" parent="1" vertex="1">
          <mxGeometry x="193" y="601" width="6" height="6" as="geometry" />
        </mxCell>
        <mxCell id="29zYwKRM0pQ-3oz3xek9-154" value="&lt;font style=&quot;font-size: 10px;&quot;&gt;5V_PI&lt;/font&gt;" style="text;html=1;strokeColor=none;fillColor=none;align=left;verticalAlign=middle;whiteSpace=wrap;rounded=0;" parent="1" vertex="1">
          <mxGeometry x="216" y="479" width="60" height="10" as="geometry" />
        </mxCell>
        <mxCell id="29zYwKRM0pQ-3oz3xek9-156" value="&lt;font style=&quot;font-size: 10px;&quot;&gt;GND_PI&lt;/font&gt;" style="text;html=1;strokeColor=none;fillColor=none;align=left;verticalAlign=middle;whiteSpace=wrap;rounded=0;" parent="1" vertex="1">
          <mxGeometry x="216" y="499" width="60" height="10" as="geometry" />
        </mxCell>
        <mxCell id="29zYwKRM0pQ-3oz3xek9-160" value="&lt;font style=&quot;font-size: 10px;&quot;&gt;D5_ENC (PH3)&lt;/font&gt;" style="text;html=1;strokeColor=none;fillColor=none;align=left;verticalAlign=middle;whiteSpace=wrap;rounded=0;" parent="1" vertex="1">
          <mxGeometry x="216" y="589" width="79" height="10" as="geometry" />
        </mxCell>
        <mxCell id="29zYwKRM0pQ-3oz3xek9-257" value="" style="rounded=0;whiteSpace=wrap;html=1;fontSize=8;fontColor=#666666;fillColor=none;" parent="1" vertex="1">
          <mxGeometry x="193" y="481" width="6" height="6" as="geometry" />
        </mxCell>
        <mxCell id="29zYwKRM0pQ-3oz3xek9-258" value="" style="rounded=0;whiteSpace=wrap;html=1;fontSize=8;fontColor=#666666;fillColor=none;" parent="1" vertex="1">
          <mxGeometry x="193" y="491" width="6" height="6" as="geometry" />
        </mxCell>
        <mxCell id="29zYwKRM0pQ-3oz3xek9-259" value="" style="rounded=0;whiteSpace=wrap;html=1;fontSize=8;fontColor=#666666;fillColor=none;" parent="1" vertex="1">
          <mxGeometry x="193" y="501" width="6" height="6" as="geometry" />
        </mxCell>
        <mxCell id="29zYwKRM0pQ-3oz3xek9-260" value="" style="rounded=0;whiteSpace=wrap;html=1;fontSize=8;fontColor=#666666;fillColor=none;" parent="1" vertex="1">
          <mxGeometry x="193" y="511" width="6" height="6" as="geometry" />
        </mxCell>
        <mxCell id="29zYwKRM0pQ-3oz3xek9-261" value="" style="rounded=0;whiteSpace=wrap;html=1;fontSize=8;fontColor=#666666;fillColor=none;" parent="1" vertex="1">
          <mxGeometry x="183" y="521" width="6" height="6" as="geometry" />
        </mxCell>
        <mxCell id="29zYwKRM0pQ-3oz3xek9-262" value="" style="rounded=0;whiteSpace=wrap;html=1;fontSize=8;fontColor=#666666;fillColor=none;" parent="1" vertex="1">
          <mxGeometry x="183" y="531" width="6" height="6" as="geometry" />
        </mxCell>
        <mxCell id="29zYwKRM0pQ-3oz3xek9-263" value="" style="rounded=0;whiteSpace=wrap;html=1;fontSize=8;fontColor=#666666;fillColor=none;" parent="1" vertex="1">
          <mxGeometry x="183" y="541" width="6" height="6" as="geometry" />
        </mxCell>
        <mxCell id="29zYwKRM0pQ-3oz3xek9-264" value="" style="rounded=0;whiteSpace=wrap;html=1;fontSize=8;fontColor=#666666;fillColor=none;" parent="1" vertex="1">
          <mxGeometry x="183" y="551" width="6" height="6" as="geometry" />
        </mxCell>
        <mxCell id="29zYwKRM0pQ-3oz3xek9-265" value="" style="rounded=0;whiteSpace=wrap;html=1;fontSize=8;fontColor=#666666;fillColor=none;" parent="1" vertex="1">
          <mxGeometry x="183" y="561" width="6" height="6" as="geometry" />
        </mxCell>
        <mxCell id="29zYwKRM0pQ-3oz3xek9-266" value="" style="rounded=0;whiteSpace=wrap;html=1;fontSize=8;fontColor=#666666;fillColor=none;" parent="1" vertex="1">
          <mxGeometry x="183" y="571" width="6" height="6" as="geometry" />
        </mxCell>
        <mxCell id="29zYwKRM0pQ-3oz3xek9-267" value="" style="rounded=0;whiteSpace=wrap;html=1;fontSize=8;fontColor=#666666;fillColor=none;" parent="1" vertex="1">
          <mxGeometry x="183" y="581" width="6" height="6" as="geometry" />
        </mxCell>
        <mxCell id="29zYwKRM0pQ-3oz3xek9-268" value="" style="rounded=0;whiteSpace=wrap;html=1;fontSize=8;fontColor=#666666;fillColor=none;" parent="1" vertex="1">
          <mxGeometry x="183" y="591" width="6" height="6" as="geometry" />
        </mxCell>
        <mxCell id="29zYwKRM0pQ-3oz3xek9-269" value="" style="rounded=0;whiteSpace=wrap;html=1;fontSize=8;fontColor=#666666;fillColor=none;" parent="1" vertex="1">
          <mxGeometry x="183" y="601" width="6" height="6" as="geometry" />
        </mxCell>
        <mxCell id="29zYwKRM0pQ-3oz3xek9-270" value="" style="rounded=0;whiteSpace=wrap;html=1;fontSize=8;fontColor=#666666;fillColor=none;" parent="1" vertex="1">
          <mxGeometry x="183" y="481" width="6" height="6" as="geometry" />
        </mxCell>
        <mxCell id="29zYwKRM0pQ-3oz3xek9-271" value="" style="rounded=0;whiteSpace=wrap;html=1;fontSize=8;fontColor=#666666;fillColor=none;" parent="1" vertex="1">
          <mxGeometry x="183" y="491" width="6" height="6" as="geometry" />
        </mxCell>
        <mxCell id="29zYwKRM0pQ-3oz3xek9-272" value="" style="rounded=0;whiteSpace=wrap;html=1;fontSize=8;fontColor=#666666;fillColor=none;" parent="1" vertex="1">
          <mxGeometry x="183" y="501" width="6" height="6" as="geometry" />
        </mxCell>
        <mxCell id="29zYwKRM0pQ-3oz3xek9-273" value="" style="rounded=0;whiteSpace=wrap;html=1;fontSize=8;fontColor=#666666;fillColor=none;" parent="1" vertex="1">
          <mxGeometry x="183" y="511" width="6" height="6" as="geometry" />
        </mxCell>
        <mxCell id="29zYwKRM0pQ-3oz3xek9-274" value="" style="rounded=0;whiteSpace=wrap;html=1;fontSize=8;fontColor=#666666;fillColor=none;" parent="1" vertex="1">
          <mxGeometry x="332" y="112" width="6" height="6" as="geometry" />
        </mxCell>
        <mxCell id="29zYwKRM0pQ-3oz3xek9-275" value="" style="rounded=0;whiteSpace=wrap;html=1;fontSize=8;fontColor=#666666;fillColor=none;" parent="1" vertex="1">
          <mxGeometry x="332" y="122" width="6" height="6" as="geometry" />
        </mxCell>
        <mxCell id="29zYwKRM0pQ-3oz3xek9-276" value="" style="rounded=0;whiteSpace=wrap;html=1;fontSize=8;fontColor=#666666;fillColor=none;" parent="1" vertex="1">
          <mxGeometry x="332" y="132" width="6" height="6" as="geometry" />
        </mxCell>
        <mxCell id="29zYwKRM0pQ-3oz3xek9-39" value="" style="endArrow=none;html=1;rounded=1;strokeWidth=3;fontSize=10;fillColor=#e51400;strokeColor=#FF0000;exitX=0.5;exitY=0.167;exitDx=0;exitDy=0;exitPerimeter=0;" parent="1" source="29zYwKRM0pQ-3oz3xek9-47" edge="1">
          <mxGeometry width="50" height="50" relative="1" as="geometry">
            <mxPoint x="340" y="115" as="sourcePoint" />
            <mxPoint x="355" y="115" as="targetPoint" />
          </mxGeometry>
        </mxCell>
        <mxCell id="29zYwKRM0pQ-3oz3xek9-40" value="" style="endArrow=none;html=1;rounded=1;strokeWidth=3;fontSize=10;fillColor=#e51400;strokeColor=#000000;exitX=0.5;exitY=0.492;exitDx=0;exitDy=0;exitPerimeter=0;" parent="1" source="29zYwKRM0pQ-3oz3xek9-47" edge="1">
          <mxGeometry width="50" height="50" relative="1" as="geometry">
            <mxPoint x="340" y="124.75999999999999" as="sourcePoint" />
            <mxPoint x="355" y="124.75999999999999" as="targetPoint" />
          </mxGeometry>
        </mxCell>
        <mxCell id="29zYwKRM0pQ-3oz3xek9-41" value="" style="endArrow=none;html=1;rounded=1;strokeWidth=3;fontSize=10;fillColor=#e3c800;strokeColor=#3333FF;exitX=0.5;exitY=0.833;exitDx=0;exitDy=0;exitPerimeter=0;" parent="1" source="29zYwKRM0pQ-3oz3xek9-47" edge="1">
          <mxGeometry width="50" height="50" relative="1" as="geometry">
            <mxPoint x="340" y="135" as="sourcePoint" />
            <mxPoint x="355" y="135" as="targetPoint" />
          </mxGeometry>
        </mxCell>
        <mxCell id="29zYwKRM0pQ-3oz3xek9-277" value="" style="rounded=0;whiteSpace=wrap;html=1;fontSize=8;fontColor=#666666;fillColor=none;" parent="1" vertex="1">
          <mxGeometry x="662" y="102" width="6" height="6" as="geometry" />
        </mxCell>
        <mxCell id="29zYwKRM0pQ-3oz3xek9-278" value="" style="rounded=0;whiteSpace=wrap;html=1;fontSize=8;fontColor=#666666;fillColor=none;" parent="1" vertex="1">
          <mxGeometry x="662" y="112" width="6" height="6" as="geometry" />
        </mxCell>
        <mxCell id="29zYwKRM0pQ-3oz3xek9-279" value="" style="rounded=0;whiteSpace=wrap;html=1;fontSize=8;fontColor=#666666;fillColor=none;" parent="1" vertex="1">
          <mxGeometry x="662" y="122" width="6" height="6" as="geometry" />
        </mxCell>
        <mxCell id="29zYwKRM0pQ-3oz3xek9-280" value="" style="rounded=0;whiteSpace=wrap;html=1;fontSize=8;fontColor=#666666;fillColor=none;" parent="1" vertex="1">
          <mxGeometry x="662" y="132" width="6" height="6" as="geometry" />
        </mxCell>
        <mxCell id="29zYwKRM0pQ-3oz3xek9-283" value="" style="rounded=0;whiteSpace=wrap;html=1;fontSize=8;fontColor=#666666;fillColor=none;" parent="1" vertex="1">
          <mxGeometry x="672" y="102" width="6" height="6" as="geometry" />
        </mxCell>
        <mxCell id="29zYwKRM0pQ-3oz3xek9-284" value="" style="rounded=0;whiteSpace=wrap;html=1;fontSize=8;fontColor=#666666;fillColor=none;" parent="1" vertex="1">
          <mxGeometry x="672" y="112" width="6" height="6" as="geometry" />
        </mxCell>
        <mxCell id="29zYwKRM0pQ-3oz3xek9-285" value="" style="rounded=0;whiteSpace=wrap;html=1;fontSize=8;fontColor=#666666;fillColor=none;" parent="1" vertex="1">
          <mxGeometry x="672" y="122" width="6" height="6" as="geometry" />
        </mxCell>
        <mxCell id="29zYwKRM0pQ-3oz3xek9-286" value="" style="rounded=0;whiteSpace=wrap;html=1;fontSize=8;fontColor=#666666;fillColor=none;" parent="1" vertex="1">
          <mxGeometry x="672" y="132" width="6" height="6" as="geometry" />
        </mxCell>
        <mxCell id="29zYwKRM0pQ-3oz3xek9-82" value="" style="endArrow=none;html=1;rounded=1;strokeWidth=3;fontSize=10;fillColor=#e51400;strokeColor=#FF0000;exitX=1;exitY=0.5;exitDx=0;exitDy=0;" parent="1" source="29zYwKRM0pQ-3oz3xek9-86" edge="1">
          <mxGeometry width="50" height="50" relative="1" as="geometry">
            <mxPoint x="650" y="104.89999999999999" as="sourcePoint" />
            <mxPoint x="665" y="104.89999999999999" as="targetPoint" />
            <Array as="points">
              <mxPoint x="655" y="105" />
            </Array>
          </mxGeometry>
        </mxCell>
        <mxCell id="29zYwKRM0pQ-3oz3xek9-62" value="" style="endArrow=none;html=1;rounded=1;strokeWidth=3;fontSize=10;fillColor=#e51400;strokeColor=#000000;entryX=0;entryY=0.5;entryDx=0;entryDy=0;" parent="1" target="29zYwKRM0pQ-3oz3xek9-59" edge="1">
          <mxGeometry width="50" height="50" relative="1" as="geometry">
            <mxPoint x="675" y="105" as="sourcePoint" />
            <mxPoint x="690" y="105" as="targetPoint" />
          </mxGeometry>
        </mxCell>
        <mxCell id="29zYwKRM0pQ-3oz3xek9-63" value="" style="endArrow=none;html=1;rounded=1;strokeWidth=3;fontSize=10;fillColor=#e51400;strokeColor=#CCCC00;fontColor=#CCCC00;entryX=0;entryY=0.5;entryDx=0;entryDy=0;" parent="1" target="29zYwKRM0pQ-3oz3xek9-60" edge="1">
          <mxGeometry width="50" height="50" relative="1" as="geometry">
            <mxPoint x="675" y="114.99999999999999" as="sourcePoint" />
            <mxPoint x="690" y="114.99999999999999" as="targetPoint" />
          </mxGeometry>
        </mxCell>
        <mxCell id="29zYwKRM0pQ-3oz3xek9-64" value="" style="endArrow=none;html=1;rounded=1;strokeWidth=3;fontSize=10;fillColor=#e3c800;strokeColor=#CCCC00;entryX=0;entryY=0.5;entryDx=0;entryDy=0;" parent="1" target="29zYwKRM0pQ-3oz3xek9-61" edge="1">
          <mxGeometry width="50" height="50" relative="1" as="geometry">
            <mxPoint x="675" y="124.94" as="sourcePoint" />
            <mxPoint x="690" y="124.94" as="targetPoint" />
          </mxGeometry>
        </mxCell>
        <mxCell id="29zYwKRM0pQ-3oz3xek9-83" value="" style="endArrow=none;html=1;rounded=1;strokeWidth=3;fontSize=10;fillColor=#e51400;strokeColor=#CCCC00;fontColor=#CCCC00;" parent="1" edge="1">
          <mxGeometry width="50" height="50" relative="1" as="geometry">
            <mxPoint x="645" y="115" as="sourcePoint" />
            <mxPoint x="665" y="115" as="targetPoint" />
          </mxGeometry>
        </mxCell>
        <mxCell id="29zYwKRM0pQ-3oz3xek9-84" value="" style="endArrow=none;html=1;rounded=1;strokeWidth=3;fontSize=10;fillColor=#e3c800;strokeColor=#CCCC00;exitX=1;exitY=0.5;exitDx=0;exitDy=0;" parent="1" source="29zYwKRM0pQ-3oz3xek9-88" edge="1">
          <mxGeometry width="50" height="50" relative="1" as="geometry">
            <mxPoint x="650" y="124.91" as="sourcePoint" />
            <mxPoint x="665" y="124.91" as="targetPoint" />
            <Array as="points">
              <mxPoint x="660" y="124.97" />
            </Array>
          </mxGeometry>
        </mxCell>
        <mxCell id="29zYwKRM0pQ-3oz3xek9-85" value="" style="endArrow=none;html=1;rounded=1;strokeWidth=3;fontSize=10;fillColor=#e3c800;strokeColor=#CCCC00;exitX=1;exitY=0.5;exitDx=0;exitDy=0;" parent="1" source="29zYwKRM0pQ-3oz3xek9-89" edge="1">
          <mxGeometry width="50" height="50" relative="1" as="geometry">
            <mxPoint x="650" y="134.91" as="sourcePoint" />
            <mxPoint x="665" y="134.91" as="targetPoint" />
          </mxGeometry>
        </mxCell>
        <mxCell id="29zYwKRM0pQ-3oz3xek9-134" value="" style="endArrow=none;html=1;rounded=1;strokeWidth=3;fontSize=10;fillColor=#e51400;strokeColor=#CCCC00;fontColor=#CCCC00;" parent="1" edge="1">
          <mxGeometry width="50" height="50" relative="1" as="geometry">
            <mxPoint x="166" y="554" as="sourcePoint" />
            <mxPoint x="186" y="554" as="targetPoint" />
          </mxGeometry>
        </mxCell>
        <mxCell id="29zYwKRM0pQ-3oz3xek9-136" value="" style="endArrow=none;html=1;rounded=1;strokeWidth=3;fontSize=10;fillColor=#e51400;strokeColor=#CCCC00;fontColor=#CCCC00;" parent="1" edge="1">
          <mxGeometry width="50" height="50" relative="1" as="geometry">
            <mxPoint x="166" y="574" as="sourcePoint" />
            <mxPoint x="186" y="574" as="targetPoint" />
          </mxGeometry>
        </mxCell>
        <mxCell id="29zYwKRM0pQ-3oz3xek9-137" value="" style="endArrow=none;html=1;rounded=1;strokeWidth=3;fontSize=10;fillColor=#e51400;strokeColor=#CCCC00;fontColor=#CCCC00;" parent="1" edge="1">
          <mxGeometry width="50" height="50" relative="1" as="geometry">
            <mxPoint x="166" y="584" as="sourcePoint" />
            <mxPoint x="186" y="584" as="targetPoint" />
          </mxGeometry>
        </mxCell>
        <mxCell id="29zYwKRM0pQ-3oz3xek9-138" value="" style="endArrow=none;html=1;rounded=1;strokeWidth=3;fontSize=10;fillColor=#e51400;strokeColor=#CCCC00;fontColor=#CCCC00;" parent="1" edge="1">
          <mxGeometry width="50" height="50" relative="1" as="geometry">
            <mxPoint x="166" y="594" as="sourcePoint" />
            <mxPoint x="186" y="594" as="targetPoint" />
          </mxGeometry>
        </mxCell>
        <mxCell id="29zYwKRM0pQ-3oz3xek9-141" value="" style="endArrow=none;html=1;rounded=1;strokeWidth=3;fontSize=10;fillColor=#e51400;strokeColor=#FF0000;fontColor=#CCCC00;" parent="1" edge="1">
          <mxGeometry width="50" height="50" relative="1" as="geometry">
            <mxPoint x="196" y="483.89" as="sourcePoint" />
            <mxPoint x="216" y="483.89" as="targetPoint" />
          </mxGeometry>
        </mxCell>
        <mxCell id="29zYwKRM0pQ-3oz3xek9-143" value="" style="endArrow=none;html=1;rounded=1;strokeWidth=3;fontSize=10;fillColor=#e51400;strokeColor=#000000;fontColor=#CCCC00;" parent="1" edge="1">
          <mxGeometry width="50" height="50" relative="1" as="geometry">
            <mxPoint x="196" y="503.89" as="sourcePoint" />
            <mxPoint x="216" y="503.89" as="targetPoint" />
          </mxGeometry>
        </mxCell>
        <mxCell id="29zYwKRM0pQ-3oz3xek9-152" value="" style="endArrow=none;html=1;rounded=1;strokeWidth=3;fontSize=10;fillColor=#e51400;strokeColor=#CCCC00;fontColor=#CCCC00;" parent="1" edge="1">
          <mxGeometry width="50" height="50" relative="1" as="geometry">
            <mxPoint x="196" y="593.89" as="sourcePoint" />
            <mxPoint x="216" y="593.89" as="targetPoint" />
          </mxGeometry>
        </mxCell>
        <mxCell id="29zYwKRM0pQ-3oz3xek9-288" value="&lt;font style=&quot;font-size: 10px;&quot;&gt;5V_SMR&lt;/font&gt;" style="text;html=1;strokeColor=none;fillColor=none;align=left;verticalAlign=middle;whiteSpace=wrap;rounded=0;" parent="1" vertex="1">
          <mxGeometry x="940" y="110.5" width="60" height="10" as="geometry" />
        </mxCell>
        <mxCell id="29zYwKRM0pQ-3oz3xek9-289" value="&lt;font style=&quot;font-size: 10px;&quot;&gt;GND_SMR&lt;/font&gt;" style="text;html=1;strokeColor=none;fillColor=none;align=left;verticalAlign=middle;whiteSpace=wrap;rounded=0;" parent="1" vertex="1">
          <mxGeometry x="940" y="120.5" width="60" height="10" as="geometry" />
        </mxCell>
        <mxCell id="29zYwKRM0pQ-3oz3xek9-290" value="&lt;font style=&quot;font-size: 10px;&quot;&gt;PWM_SMR&lt;/font&gt;" style="text;html=1;strokeColor=none;fillColor=none;align=left;verticalAlign=middle;whiteSpace=wrap;rounded=0;" parent="1" vertex="1">
          <mxGeometry x="940" y="130.5" width="60" height="10" as="geometry" />
        </mxCell>
        <mxCell id="29zYwKRM0pQ-3oz3xek9-291" value="dupont 1x3 M" style="text;html=1;strokeColor=none;fillColor=none;align=left;verticalAlign=middle;whiteSpace=wrap;rounded=0;fontSize=10;" parent="1" vertex="1">
          <mxGeometry x="915" y="95.5" width="115" height="10" as="geometry" />
        </mxCell>
        <mxCell id="29zYwKRM0pQ-3oz3xek9-292" value="" style="rounded=0;whiteSpace=wrap;html=1;fontSize=10;fillColor=#666666;strokeColor=none;" parent="1" vertex="1">
          <mxGeometry x="915" y="110.5" width="10" height="30" as="geometry" />
        </mxCell>
        <mxCell id="29zYwKRM0pQ-3oz3xek9-293" value="" style="rounded=0;whiteSpace=wrap;html=1;fontSize=8;fontColor=#666666;fillColor=none;" parent="1" vertex="1">
          <mxGeometry x="917" y="112.5" width="6" height="6" as="geometry" />
        </mxCell>
        <mxCell id="29zYwKRM0pQ-3oz3xek9-294" value="" style="rounded=0;whiteSpace=wrap;html=1;fontSize=8;fontColor=#666666;fillColor=none;" parent="1" vertex="1">
          <mxGeometry x="917" y="122.5" width="6" height="6" as="geometry" />
        </mxCell>
        <mxCell id="29zYwKRM0pQ-3oz3xek9-295" value="" style="rounded=0;whiteSpace=wrap;html=1;fontSize=8;fontColor=#666666;fillColor=none;" parent="1" vertex="1">
          <mxGeometry x="917" y="132.5" width="6" height="6" as="geometry" />
        </mxCell>
        <mxCell id="29zYwKRM0pQ-3oz3xek9-296" value="" style="endArrow=none;html=1;rounded=1;strokeWidth=3;fontSize=10;fillColor=#e51400;strokeColor=#FF0000;exitX=0.5;exitY=0.167;exitDx=0;exitDy=0;exitPerimeter=0;" parent="1" source="29zYwKRM0pQ-3oz3xek9-292" edge="1">
          <mxGeometry width="50" height="50" relative="1" as="geometry">
            <mxPoint x="925" y="115.5" as="sourcePoint" />
            <mxPoint x="940" y="115.5" as="targetPoint" />
          </mxGeometry>
        </mxCell>
        <mxCell id="29zYwKRM0pQ-3oz3xek9-297" value="" style="endArrow=none;html=1;rounded=1;strokeWidth=3;fontSize=10;fillColor=#e51400;strokeColor=#000000;exitX=0.5;exitY=0.492;exitDx=0;exitDy=0;exitPerimeter=0;" parent="1" source="29zYwKRM0pQ-3oz3xek9-292" edge="1">
          <mxGeometry width="50" height="50" relative="1" as="geometry">
            <mxPoint x="925" y="125.25999999999999" as="sourcePoint" />
            <mxPoint x="940" y="125.26000000000022" as="targetPoint" />
          </mxGeometry>
        </mxCell>
        <mxCell id="29zYwKRM0pQ-3oz3xek9-298" value="" style="endArrow=none;html=1;rounded=1;strokeWidth=3;fontSize=10;fillColor=#e3c800;strokeColor=#3333FF;exitX=0.5;exitY=0.833;exitDx=0;exitDy=0;exitPerimeter=0;" parent="1" source="29zYwKRM0pQ-3oz3xek9-292" edge="1">
          <mxGeometry width="50" height="50" relative="1" as="geometry">
            <mxPoint x="925" y="135.5" as="sourcePoint" />
            <mxPoint x="940" y="135.5" as="targetPoint" />
          </mxGeometry>
        </mxCell>
        <mxCell id="29zYwKRM0pQ-3oz3xek9-299" value="&lt;font style=&quot;font-size: 10px;&quot;&gt;5V_SMB&lt;/font&gt;" style="text;html=1;strokeColor=none;fillColor=none;align=left;verticalAlign=middle;whiteSpace=wrap;rounded=0;" parent="1" vertex="1">
          <mxGeometry x="495.5" y="805" width="60" height="10" as="geometry" />
        </mxCell>
        <mxCell id="29zYwKRM0pQ-3oz3xek9-300" value="&lt;font style=&quot;font-size: 10px;&quot;&gt;GND_SMB&lt;/font&gt;" style="text;html=1;strokeColor=none;fillColor=none;align=left;verticalAlign=middle;whiteSpace=wrap;rounded=0;" parent="1" vertex="1">
          <mxGeometry x="495.5" y="815" width="60" height="10" as="geometry" />
        </mxCell>
        <mxCell id="29zYwKRM0pQ-3oz3xek9-301" value="&lt;font style=&quot;font-size: 10px;&quot;&gt;PWM_SMB&lt;/font&gt;" style="text;html=1;strokeColor=none;fillColor=none;align=left;verticalAlign=middle;whiteSpace=wrap;rounded=0;" parent="1" vertex="1">
          <mxGeometry x="495.5" y="825" width="60" height="10" as="geometry" />
        </mxCell>
        <mxCell id="29zYwKRM0pQ-3oz3xek9-302" value="dupont 1x3 M" style="text;html=1;strokeColor=none;fillColor=none;align=left;verticalAlign=middle;whiteSpace=wrap;rounded=0;fontSize=10;" parent="1" vertex="1">
          <mxGeometry x="470" y="836.5" width="115" height="10" as="geometry" />
        </mxCell>
        <mxCell id="29zYwKRM0pQ-3oz3xek9-303" value="" style="rounded=0;whiteSpace=wrap;html=1;fontSize=10;fillColor=#666666;strokeColor=none;" parent="1" vertex="1">
          <mxGeometry x="470.5" y="805" width="10" height="30" as="geometry" />
        </mxCell>
        <mxCell id="29zYwKRM0pQ-3oz3xek9-304" value="" style="rounded=0;whiteSpace=wrap;html=1;fontSize=8;fontColor=#666666;fillColor=none;" parent="1" vertex="1">
          <mxGeometry x="472.5" y="807" width="6" height="6" as="geometry" />
        </mxCell>
        <mxCell id="29zYwKRM0pQ-3oz3xek9-305" value="" style="rounded=0;whiteSpace=wrap;html=1;fontSize=8;fontColor=#666666;fillColor=none;" parent="1" vertex="1">
          <mxGeometry x="472.5" y="817" width="6" height="6" as="geometry" />
        </mxCell>
        <mxCell id="29zYwKRM0pQ-3oz3xek9-306" value="" style="rounded=0;whiteSpace=wrap;html=1;fontSize=8;fontColor=#666666;fillColor=none;" parent="1" vertex="1">
          <mxGeometry x="472.5" y="827" width="6" height="6" as="geometry" />
        </mxCell>
        <mxCell id="29zYwKRM0pQ-3oz3xek9-307" value="" style="endArrow=none;html=1;rounded=1;strokeWidth=3;fontSize=10;fillColor=#e51400;strokeColor=#FF0000;exitX=0.5;exitY=0.167;exitDx=0;exitDy=0;exitPerimeter=0;" parent="1" source="29zYwKRM0pQ-3oz3xek9-303" edge="1">
          <mxGeometry width="50" height="50" relative="1" as="geometry">
            <mxPoint x="480.5" y="810" as="sourcePoint" />
            <mxPoint x="495.5" y="810" as="targetPoint" />
          </mxGeometry>
        </mxCell>
        <mxCell id="29zYwKRM0pQ-3oz3xek9-308" value="" style="endArrow=none;html=1;rounded=1;strokeWidth=3;fontSize=10;fillColor=#e51400;strokeColor=#000000;exitX=0.5;exitY=0.492;exitDx=0;exitDy=0;exitPerimeter=0;" parent="1" source="29zYwKRM0pQ-3oz3xek9-303" edge="1">
          <mxGeometry width="50" height="50" relative="1" as="geometry">
            <mxPoint x="480.5" y="819.76" as="sourcePoint" />
            <mxPoint x="495.5" y="819.7600000000002" as="targetPoint" />
          </mxGeometry>
        </mxCell>
        <mxCell id="29zYwKRM0pQ-3oz3xek9-309" value="" style="endArrow=none;html=1;rounded=1;strokeWidth=3;fontSize=10;fillColor=#e3c800;strokeColor=#3333FF;exitX=0.5;exitY=0.833;exitDx=0;exitDy=0;exitPerimeter=0;" parent="1" source="29zYwKRM0pQ-3oz3xek9-303" edge="1">
          <mxGeometry width="50" height="50" relative="1" as="geometry">
            <mxPoint x="480.5" y="830" as="sourcePoint" />
            <mxPoint x="495.5" y="830" as="targetPoint" />
          </mxGeometry>
        </mxCell>
        <mxCell id="29zYwKRM0pQ-3oz3xek9-310" value="&lt;span style=&quot;font-size: 10px;&quot;&gt;5V_LED_LOGO&lt;/span&gt;" style="text;html=1;strokeColor=none;fillColor=none;align=left;verticalAlign=middle;whiteSpace=wrap;rounded=0;" parent="1" vertex="1">
          <mxGeometry x="1230" y="110" width="60" height="10" as="geometry" />
        </mxCell>
        <mxCell id="29zYwKRM0pQ-3oz3xek9-311" value="&lt;span style=&quot;font-size: 10px;&quot;&gt;GND_LED_LOGO&lt;/span&gt;" style="text;html=1;strokeColor=none;fillColor=none;align=left;verticalAlign=middle;whiteSpace=wrap;rounded=0;" parent="1" vertex="1">
          <mxGeometry x="1230" y="120" width="60" height="10" as="geometry" />
        </mxCell>
        <mxCell id="29zYwKRM0pQ-3oz3xek9-313" value="" style="rounded=0;whiteSpace=wrap;html=1;fontSize=10;fillColor=#666666;strokeColor=none;" parent="1" vertex="1">
          <mxGeometry x="1195" y="110" width="20" height="30" as="geometry" />
        </mxCell>
        <mxCell id="29zYwKRM0pQ-3oz3xek9-314" value="&lt;font style=&quot;font-size: 10px;&quot;&gt;5V_LED_WHL&lt;/font&gt;" style="text;html=1;strokeColor=none;fillColor=none;align=right;verticalAlign=middle;whiteSpace=wrap;rounded=0;" parent="1" vertex="1">
          <mxGeometry x="1105" y="110" width="75" height="10" as="geometry" />
        </mxCell>
        <mxCell id="29zYwKRM0pQ-3oz3xek9-315" value="&lt;font style=&quot;font-size: 10px;&quot;&gt;GND_LED_WHL&lt;/font&gt;" style="text;html=1;strokeColor=none;fillColor=none;align=right;verticalAlign=middle;whiteSpace=wrap;rounded=0;" parent="1" vertex="1">
          <mxGeometry x="1120" y="120" width="60" height="10" as="geometry" />
        </mxCell>
        <mxCell id="29zYwKRM0pQ-3oz3xek9-316" value="&lt;font style=&quot;font-size: 10px;&quot;&gt;LED_LOGO&lt;/font&gt;" style="text;html=1;strokeColor=none;fillColor=none;align=right;verticalAlign=middle;whiteSpace=wrap;rounded=0;" parent="1" vertex="1">
          <mxGeometry x="1120" y="130" width="60" height="10" as="geometry" />
        </mxCell>
        <mxCell id="29zYwKRM0pQ-3oz3xek9-318" value="" style="endArrow=none;html=1;rounded=1;strokeColor=#FFFFFF;strokeWidth=1;fontSize=10;entryX=0.5;entryY=0;entryDx=0;entryDy=0;exitX=0.5;exitY=1;exitDx=0;exitDy=0;" parent="1" source="29zYwKRM0pQ-3oz3xek9-313" edge="1">
          <mxGeometry width="50" height="50" relative="1" as="geometry">
            <mxPoint x="1205" y="140" as="sourcePoint" />
            <mxPoint x="1205" y="110" as="targetPoint" />
          </mxGeometry>
        </mxCell>
        <mxCell id="29zYwKRM0pQ-3oz3xek9-319" value="dupont 2x3 F" style="text;html=1;strokeColor=none;fillColor=none;align=center;verticalAlign=middle;whiteSpace=wrap;rounded=0;fontSize=10;" parent="1" vertex="1">
          <mxGeometry x="1147.5" y="95" width="115" height="10" as="geometry" />
        </mxCell>
        <mxCell id="29zYwKRM0pQ-3oz3xek9-320" value="" style="rounded=0;whiteSpace=wrap;html=1;fontSize=8;fontColor=#666666;fillColor=none;" parent="1" vertex="1">
          <mxGeometry x="1197" y="112" width="6" height="6" as="geometry" />
        </mxCell>
        <mxCell id="29zYwKRM0pQ-3oz3xek9-321" value="" style="rounded=0;whiteSpace=wrap;html=1;fontSize=8;fontColor=#666666;fillColor=none;" parent="1" vertex="1">
          <mxGeometry x="1197" y="122" width="6" height="6" as="geometry" />
        </mxCell>
        <mxCell id="29zYwKRM0pQ-3oz3xek9-322" value="" style="rounded=0;whiteSpace=wrap;html=1;fontSize=8;fontColor=#666666;fillColor=none;" parent="1" vertex="1">
          <mxGeometry x="1197" y="132" width="6" height="6" as="geometry" />
        </mxCell>
        <mxCell id="29zYwKRM0pQ-3oz3xek9-324" value="" style="rounded=0;whiteSpace=wrap;html=1;fontSize=8;fontColor=#666666;fillColor=none;" parent="1" vertex="1">
          <mxGeometry x="1207" y="112" width="6" height="6" as="geometry" />
        </mxCell>
        <mxCell id="29zYwKRM0pQ-3oz3xek9-325" value="" style="rounded=0;whiteSpace=wrap;html=1;fontSize=8;fontColor=#666666;fillColor=none;" parent="1" vertex="1">
          <mxGeometry x="1207" y="122" width="6" height="6" as="geometry" />
        </mxCell>
        <mxCell id="29zYwKRM0pQ-3oz3xek9-326" value="" style="rounded=0;whiteSpace=wrap;html=1;fontSize=8;fontColor=#666666;fillColor=none;" parent="1" vertex="1">
          <mxGeometry x="1207" y="132" width="6" height="6" as="geometry" />
        </mxCell>
        <mxCell id="29zYwKRM0pQ-3oz3xek9-328" value="" style="endArrow=none;html=1;rounded=1;strokeWidth=3;fontSize=10;fillColor=#e51400;strokeColor=#FF0000;exitX=1;exitY=0.5;exitDx=0;exitDy=0;" parent="1" source="29zYwKRM0pQ-3oz3xek9-314" edge="1">
          <mxGeometry width="50" height="50" relative="1" as="geometry">
            <mxPoint x="1185" y="114.89999999999998" as="sourcePoint" />
            <mxPoint x="1200" y="114.90000000000009" as="targetPoint" />
            <Array as="points">
              <mxPoint x="1190" y="115" />
            </Array>
          </mxGeometry>
        </mxCell>
        <mxCell id="29zYwKRM0pQ-3oz3xek9-329" value="" style="endArrow=none;html=1;rounded=1;strokeWidth=3;fontSize=10;fillColor=#e51400;strokeColor=#FF0000;entryX=0;entryY=0.5;entryDx=0;entryDy=0;" parent="1" target="29zYwKRM0pQ-3oz3xek9-310" edge="1">
          <mxGeometry width="50" height="50" relative="1" as="geometry">
            <mxPoint x="1210" y="115" as="sourcePoint" />
            <mxPoint x="1225" y="115" as="targetPoint" />
          </mxGeometry>
        </mxCell>
        <mxCell id="29zYwKRM0pQ-3oz3xek9-330" value="" style="endArrow=none;html=1;rounded=1;strokeWidth=3;fontSize=10;fillColor=#e51400;strokeColor=#000000;fontColor=#CCCC00;entryX=0;entryY=0.5;entryDx=0;entryDy=0;" parent="1" target="29zYwKRM0pQ-3oz3xek9-311" edge="1">
          <mxGeometry width="50" height="50" relative="1" as="geometry">
            <mxPoint x="1210" y="125" as="sourcePoint" />
            <mxPoint x="1225" y="125" as="targetPoint" />
          </mxGeometry>
        </mxCell>
        <mxCell id="29zYwKRM0pQ-3oz3xek9-332" value="" style="endArrow=none;html=1;rounded=1;strokeWidth=3;fontSize=10;fillColor=#e51400;strokeColor=#000000;fontColor=#CCCC00;" parent="1" edge="1">
          <mxGeometry width="50" height="50" relative="1" as="geometry">
            <mxPoint x="1180" y="125" as="sourcePoint" />
            <mxPoint x="1200" y="125" as="targetPoint" />
          </mxGeometry>
        </mxCell>
        <mxCell id="29zYwKRM0pQ-3oz3xek9-333" value="" style="endArrow=none;html=1;rounded=1;strokeWidth=3;fontSize=10;fillColor=#e3c800;strokeColor=#00994D;exitX=1;exitY=0.5;exitDx=0;exitDy=0;" parent="1" source="29zYwKRM0pQ-3oz3xek9-316" edge="1">
          <mxGeometry width="50" height="50" relative="1" as="geometry">
            <mxPoint x="1185" y="134.90999999999997" as="sourcePoint" />
            <mxPoint x="1200" y="134.91000000000008" as="targetPoint" />
            <Array as="points">
              <mxPoint x="1195" y="134.97000000000003" />
            </Array>
          </mxGeometry>
        </mxCell>
        <mxCell id="29zYwKRM0pQ-3oz3xek9-337" style="edgeStyle=orthogonalEdgeStyle;rounded=1;orthogonalLoop=1;jettySize=auto;html=1;strokeColor=#000000;strokeWidth=3;fontSize=8;fontColor=#666666;startArrow=classic;startFill=1;endArrow=none;endFill=0;" parent="1" source="29zYwKRM0pQ-3oz3xek9-336" edge="1">
          <mxGeometry relative="1" as="geometry">
            <mxPoint x="670" y="345" as="targetPoint" />
            <Array as="points">
              <mxPoint x="670" y="280" />
            </Array>
          </mxGeometry>
        </mxCell>
        <mxCell id="0LZvKdBmU08WbHENAA4L-51" value="&lt;font style=&quot;font-size: 9px;&quot;&gt;4 x 0.35 mm&lt;sup style=&quot;border-color: var(--border-color);&quot;&gt;2&lt;/sup&gt;&lt;/font&gt;" style="edgeLabel;html=1;align=center;verticalAlign=middle;resizable=0;points=[];labelBackgroundColor=none;" parent="29zYwKRM0pQ-3oz3xek9-337" vertex="1" connectable="0">
          <mxGeometry x="-0.7599" relative="1" as="geometry">
            <mxPoint x="14" y="-10" as="offset" />
          </mxGeometry>
        </mxCell>
        <mxCell id="29zYwKRM0pQ-3oz3xek9-336" value="" style="rounded=1;whiteSpace=wrap;html=1;fontSize=8;fontColor=#666666;fillColor=none;dashed=1;" parent="1" vertex="1">
          <mxGeometry x="1115" y="152" width="175" height="203" as="geometry" />
        </mxCell>
        <mxCell id="29zYwKRM0pQ-3oz3xek9-35" value="&lt;font style=&quot;font-size: 10px;&quot;&gt;Logo LEDs (120/m)&lt;br&gt;WS1812B, 37 LEDs&lt;br&gt;5V, 1.9A, 9.5 W&lt;br&gt;&lt;/font&gt;" style="rounded=1;whiteSpace=wrap;html=1;fillColor=#f8cecc;strokeColor=#b85450;" parent="1" vertex="1">
          <mxGeometry x="1140" y="277" width="120" height="60" as="geometry" />
        </mxCell>
        <mxCell id="pXlnRN1fEk7zmC_KEz_S-15" value="&lt;font style=&quot;font-size: 10px;&quot;&gt;Wheel LEDs (120/m)&lt;br&gt;WS1812B, 35 LEDs&lt;br&gt;5V, 1.8A, 8.8 W&lt;br&gt;&lt;/font&gt;" style="rounded=1;whiteSpace=wrap;html=1;fillColor=#f8cecc;strokeColor=#b85450;" parent="1" vertex="1">
          <mxGeometry x="1140" y="182" width="120" height="60" as="geometry" />
        </mxCell>
        <mxCell id="29zYwKRM0pQ-3oz3xek9-339" value="&lt;font style=&quot;font-size: 10px;&quot; color=&quot;#000000&quot;&gt;IEC C13&lt;/font&gt;" style="text;html=1;strokeColor=none;fillColor=none;align=center;verticalAlign=middle;whiteSpace=wrap;rounded=0;fontSize=8;fontColor=#666666;movable=1;resizable=1;rotatable=1;deletable=1;editable=1;connectable=1;" parent="1" vertex="1">
          <mxGeometry x="817" y="802.25" width="60" height="10" as="geometry" />
        </mxCell>
        <mxCell id="29zYwKRM0pQ-3oz3xek9-340" value="&lt;font style=&quot;font-size: 10px;&quot; color=&quot;#000000&quot;&gt;XT30&lt;/font&gt;" style="text;html=1;strokeColor=none;fillColor=none;align=center;verticalAlign=middle;whiteSpace=wrap;rounded=0;fontSize=8;fontColor=#666666;" parent="1" vertex="1">
          <mxGeometry x="950" y="563" width="45" height="12" as="geometry" />
        </mxCell>
        <mxCell id="29zYwKRM0pQ-3oz3xek9-353" value="&lt;font style=&quot;font-size: 10px;&quot; color=&quot;#000000&quot;&gt;XT30&lt;/font&gt;" style="text;html=1;strokeColor=none;fillColor=none;align=center;verticalAlign=middle;whiteSpace=wrap;rounded=0;fontSize=8;fontColor=#666666;" parent="1" vertex="1">
          <mxGeometry x="817.5" y="722.75" width="45" height="12" as="geometry" />
        </mxCell>
        <mxCell id="29zYwKRM0pQ-3oz3xek9-355" value="&lt;font style=&quot;font-size: 10px;&quot; color=&quot;#000000&quot;&gt;5.5/2.1 mm&lt;/font&gt;" style="text;html=1;strokeColor=none;fillColor=none;align=right;verticalAlign=middle;whiteSpace=wrap;rounded=0;fontSize=8;fontColor=#666666;" parent="1" vertex="1">
          <mxGeometry x="1048" y="538" width="70" height="12" as="geometry" />
        </mxCell>
        <mxCell id="29zYwKRM0pQ-3oz3xek9-356" value="&lt;font style=&quot;font-size: 10px;&quot; color=&quot;#000000&quot;&gt;3.5 mm&lt;/font&gt;" style="text;html=1;strokeColor=none;fillColor=none;align=right;verticalAlign=middle;whiteSpace=wrap;rounded=0;fontSize=8;fontColor=#666666;" parent="1" vertex="1">
          <mxGeometry x="1142" y="486" width="40" height="12" as="geometry" />
        </mxCell>
        <mxCell id="29zYwKRM0pQ-3oz3xek9-357" value="&lt;font style=&quot;font-size: 10px;&quot; color=&quot;#000000&quot;&gt;3.5 mm&lt;/font&gt;" style="text;html=1;strokeColor=none;fillColor=none;align=right;verticalAlign=middle;whiteSpace=wrap;rounded=0;fontSize=8;fontColor=#666666;" parent="1" vertex="1">
          <mxGeometry x="305" y="486" width="70" height="12" as="geometry" />
        </mxCell>
        <mxCell id="29zYwKRM0pQ-3oz3xek9-359" value="&lt;font style=&quot;font-size: 10px;&quot; color=&quot;#000000&quot;&gt;RJ45&lt;/font&gt;" style="text;html=1;strokeColor=none;fillColor=none;align=right;verticalAlign=middle;whiteSpace=wrap;rounded=0;fontSize=8;fontColor=#666666;" parent="1" vertex="1">
          <mxGeometry x="374" y="562" width="45" height="12" as="geometry" />
        </mxCell>
        <mxCell id="29zYwKRM0pQ-3oz3xek9-360" value="&lt;font style=&quot;font-size: 10px;&quot; color=&quot;#000000&quot;&gt;RJ45&lt;/font&gt;" style="text;html=1;strokeColor=none;fillColor=none;align=right;verticalAlign=middle;whiteSpace=wrap;rounded=0;fontSize=8;fontColor=#666666;" parent="1" vertex="1">
          <mxGeometry x="374" y="650" width="45" height="12" as="geometry" />
        </mxCell>
        <mxCell id="29zYwKRM0pQ-3oz3xek9-362" value="&lt;span style=&quot;font-size: 10px;&quot;&gt;SPEAKER_L+&lt;/span&gt;" style="text;html=1;strokeColor=none;fillColor=none;align=left;verticalAlign=middle;whiteSpace=wrap;rounded=0;" parent="1" vertex="1">
          <mxGeometry x="363" y="315" width="60" height="10" as="geometry" />
        </mxCell>
        <mxCell id="29zYwKRM0pQ-3oz3xek9-363" value="&lt;font style=&quot;font-size: 10px;&quot;&gt;SPEAKER_L-&lt;/font&gt;" style="text;html=1;strokeColor=none;fillColor=none;align=left;verticalAlign=middle;whiteSpace=wrap;rounded=0;" parent="1" vertex="1">
          <mxGeometry x="363" y="325" width="60" height="10" as="geometry" />
        </mxCell>
        <mxCell id="29zYwKRM0pQ-3oz3xek9-365" value="2 x spade F" style="text;html=1;strokeColor=none;fillColor=none;align=left;verticalAlign=middle;whiteSpace=wrap;rounded=0;fontSize=10;" parent="1" vertex="1">
          <mxGeometry x="338" y="302" width="115" height="10" as="geometry" />
        </mxCell>
        <mxCell id="29zYwKRM0pQ-3oz3xek9-366" value="" style="rounded=0;whiteSpace=wrap;html=1;fontSize=10;fillColor=#666666;strokeColor=none;" parent="1" vertex="1">
          <mxGeometry x="325" y="315" width="23" height="20" as="geometry" />
        </mxCell>
        <mxCell id="29zYwKRM0pQ-3oz3xek9-370" value="" style="endArrow=none;html=1;rounded=1;strokeWidth=3;fontSize=10;fillColor=#e51400;strokeColor=#FF0000;" parent="1" edge="1">
          <mxGeometry width="50" height="50" relative="1" as="geometry">
            <mxPoint x="342.5" y="320" as="sourcePoint" />
            <mxPoint x="363" y="320" as="targetPoint" />
          </mxGeometry>
        </mxCell>
        <mxCell id="29zYwKRM0pQ-3oz3xek9-371" value="" style="endArrow=none;html=1;rounded=1;strokeWidth=3;fontSize=10;fillColor=#e51400;strokeColor=#000000;" parent="1" edge="1">
          <mxGeometry width="50" height="50" relative="1" as="geometry">
            <mxPoint x="342.5" y="330" as="sourcePoint" />
            <mxPoint x="363" y="329.7600000000002" as="targetPoint" />
            <Array as="points">
              <mxPoint x="362.5" y="330" />
            </Array>
          </mxGeometry>
        </mxCell>
        <mxCell id="29zYwKRM0pQ-3oz3xek9-381" value="&lt;span style=&quot;font-size: 10px;&quot;&gt;SPEAKER_L+&lt;/span&gt;" style="text;html=1;strokeColor=none;fillColor=none;align=left;verticalAlign=middle;whiteSpace=wrap;rounded=0;" parent="1" vertex="1">
          <mxGeometry x="1158" y="598" width="72" height="10" as="geometry" />
        </mxCell>
        <mxCell id="29zYwKRM0pQ-3oz3xek9-382" value="&lt;font style=&quot;font-size: 10px;&quot;&gt;SPEAKER_L-&lt;/font&gt;" style="text;html=1;strokeColor=none;fillColor=none;align=left;verticalAlign=middle;whiteSpace=wrap;rounded=0;" parent="1" vertex="1">
          <mxGeometry x="1158" y="608" width="72" height="10" as="geometry" />
        </mxCell>
        <mxCell id="29zYwKRM0pQ-3oz3xek9-383" value="screw terminal" style="text;html=1;strokeColor=none;fillColor=none;align=left;verticalAlign=middle;whiteSpace=wrap;rounded=0;fontSize=10;" parent="1" vertex="1">
          <mxGeometry x="1190" y="486" width="115" height="10" as="geometry" />
        </mxCell>
        <mxCell id="29zYwKRM0pQ-3oz3xek9-384" value="" style="rounded=0;whiteSpace=wrap;html=1;fontSize=10;fillColor=#666666;strokeColor=none;" parent="1" vertex="1">
          <mxGeometry x="1133" y="598" width="10" height="41" as="geometry" />
        </mxCell>
        <mxCell id="29zYwKRM0pQ-3oz3xek9-385" value="" style="rounded=0;whiteSpace=wrap;html=1;fontSize=8;fontColor=#666666;fillColor=none;" parent="1" vertex="1">
          <mxGeometry x="1135" y="600" width="6" height="6" as="geometry" />
        </mxCell>
        <mxCell id="29zYwKRM0pQ-3oz3xek9-386" value="" style="rounded=0;whiteSpace=wrap;html=1;fontSize=8;fontColor=#666666;fillColor=none;" parent="1" vertex="1">
          <mxGeometry x="1135" y="610" width="6" height="6" as="geometry" />
        </mxCell>
        <mxCell id="29zYwKRM0pQ-3oz3xek9-387" value="" style="endArrow=none;html=1;rounded=1;strokeWidth=3;fontSize=10;fillColor=#e51400;strokeColor=#FF0000;" parent="1" edge="1">
          <mxGeometry width="50" height="50" relative="1" as="geometry">
            <mxPoint x="1137.5" y="603" as="sourcePoint" />
            <mxPoint x="1158" y="603" as="targetPoint" />
          </mxGeometry>
        </mxCell>
        <mxCell id="29zYwKRM0pQ-3oz3xek9-388" value="" style="endArrow=none;html=1;rounded=1;strokeWidth=3;fontSize=10;fillColor=#e51400;strokeColor=#000000;" parent="1" edge="1">
          <mxGeometry width="50" height="50" relative="1" as="geometry">
            <mxPoint x="1137.5" y="613" as="sourcePoint" />
            <mxPoint x="1158" y="612.7600000000002" as="targetPoint" />
            <Array as="points">
              <mxPoint x="1157.5" y="613" />
            </Array>
          </mxGeometry>
        </mxCell>
        <mxCell id="29zYwKRM0pQ-3oz3xek9-389" value="&lt;font style=&quot;font-size: 10px;&quot;&gt;SPEAKER_R-&lt;/font&gt;" style="text;html=1;strokeColor=none;fillColor=none;align=left;verticalAlign=middle;whiteSpace=wrap;rounded=0;" parent="1" vertex="1">
          <mxGeometry x="1158" y="628" width="72" height="10" as="geometry" />
        </mxCell>
        <mxCell id="29zYwKRM0pQ-3oz3xek9-390" value="" style="rounded=0;whiteSpace=wrap;html=1;fontSize=8;fontColor=#666666;fillColor=none;" parent="1" vertex="1">
          <mxGeometry x="1135" y="620" width="6" height="6" as="geometry" />
        </mxCell>
        <mxCell id="29zYwKRM0pQ-3oz3xek9-391" value="" style="rounded=0;whiteSpace=wrap;html=1;fontSize=8;fontColor=#666666;fillColor=none;" parent="1" vertex="1">
          <mxGeometry x="1135" y="630" width="6" height="6" as="geometry" />
        </mxCell>
        <mxCell id="29zYwKRM0pQ-3oz3xek9-392" value="" style="endArrow=none;html=1;rounded=1;strokeWidth=3;fontSize=10;fillColor=#e51400;strokeColor=#FF0000;" parent="1" edge="1">
          <mxGeometry width="50" height="50" relative="1" as="geometry">
            <mxPoint x="1137.5" y="623" as="sourcePoint" />
            <mxPoint x="1158" y="623" as="targetPoint" />
          </mxGeometry>
        </mxCell>
        <mxCell id="29zYwKRM0pQ-3oz3xek9-393" value="" style="endArrow=none;html=1;rounded=1;strokeWidth=3;fontSize=10;fillColor=#e51400;strokeColor=#000000;" parent="1" edge="1">
          <mxGeometry width="50" height="50" relative="1" as="geometry">
            <mxPoint x="1137.5" y="633" as="sourcePoint" />
            <mxPoint x="1158" y="632.7600000000004" as="targetPoint" />
            <Array as="points">
              <mxPoint x="1157.5" y="633" />
            </Array>
          </mxGeometry>
        </mxCell>
        <mxCell id="29zYwKRM0pQ-3oz3xek9-394" value="&lt;font style=&quot;font-size: 10px;&quot;&gt;SPEAKER_R+&lt;/font&gt;" style="text;html=1;strokeColor=none;fillColor=none;align=left;verticalAlign=middle;whiteSpace=wrap;rounded=0;" parent="1" vertex="1">
          <mxGeometry x="1158" y="618.5" width="72" height="10" as="geometry" />
        </mxCell>
        <mxCell id="29zYwKRM0pQ-3oz3xek9-398" value="" style="ellipse;whiteSpace=wrap;html=1;aspect=fixed;fontSize=10;fontColor=#000000;fillColor=none;strokeWidth=2;" parent="1" vertex="1">
          <mxGeometry x="1169" y="572" width="6" height="6" as="geometry" />
        </mxCell>
        <mxCell id="29zYwKRM0pQ-3oz3xek9-401" value="" style="endArrow=none;html=1;rounded=1;strokeWidth=3;fontSize=10;fillColor=#e51400;strokeColor=#FF0000;" parent="1" edge="1">
          <mxGeometry width="50" height="50" relative="1" as="geometry">
            <mxPoint x="1141" y="569.8299999999999" as="sourcePoint" />
            <mxPoint x="1161.5" y="569.8299999999999" as="targetPoint" />
          </mxGeometry>
        </mxCell>
        <mxCell id="29zYwKRM0pQ-3oz3xek9-403" value="" style="endArrow=none;html=1;rounded=1;strokeWidth=3;fontSize=10;fillColor=#e51400;strokeColor=#000000;" parent="1" edge="1">
          <mxGeometry width="50" height="50" relative="1" as="geometry">
            <mxPoint x="1141" y="579.8299999999999" as="sourcePoint" />
            <mxPoint x="1161.5" y="579.8299999999999" as="targetPoint" />
            <Array as="points" />
          </mxGeometry>
        </mxCell>
        <mxCell id="29zYwKRM0pQ-3oz3xek9-404" value="&lt;span style=&quot;font-size: 10px;&quot;&gt;20V_AMP&lt;/span&gt;" style="text;html=1;strokeColor=none;fillColor=none;align=right;verticalAlign=middle;whiteSpace=wrap;rounded=0;" parent="1" vertex="1">
          <mxGeometry x="1070" y="564" width="72" height="10" as="geometry" />
        </mxCell>
        <mxCell id="29zYwKRM0pQ-3oz3xek9-405" value="&lt;span style=&quot;font-size: 10px;&quot;&gt;GND_AMP&lt;/span&gt;" style="text;html=1;strokeColor=none;fillColor=none;align=right;verticalAlign=middle;whiteSpace=wrap;rounded=0;" parent="1" vertex="1">
          <mxGeometry x="1070" y="574" width="72" height="10" as="geometry" />
        </mxCell>
        <mxCell id="rLxRDN-JaPaV8J7SCyjs-1" value="&lt;font style=&quot;&quot;&gt;&lt;font style=&quot;font-size: 10px;&quot;&gt;Power relay&lt;br&gt;RPC-1ER-UNI&amp;nbsp;&lt;/font&gt;&lt;br&gt;&lt;/font&gt;" style="rounded=1;whiteSpace=wrap;html=1;fillColor=#ffcc99;strokeColor=#36393d;" parent="1" vertex="1">
          <mxGeometry x="930" y="502" width="120" height="60" as="geometry" />
        </mxCell>
        <mxCell id="B1lKLUDy4WwGttco4L_s-1" value="&lt;span style=&quot;font-size: 10px;&quot;&gt;SPEAKER_L+&lt;/span&gt;" style="text;html=1;strokeColor=none;fillColor=none;align=left;verticalAlign=middle;whiteSpace=wrap;rounded=0;" parent="1" vertex="1">
          <mxGeometry x="955" y="315" width="60" height="10" as="geometry" />
        </mxCell>
        <mxCell id="B1lKLUDy4WwGttco4L_s-2" value="&lt;font style=&quot;font-size: 10px;&quot;&gt;SPEAKER_L-&lt;/font&gt;" style="text;html=1;strokeColor=none;fillColor=none;align=left;verticalAlign=middle;whiteSpace=wrap;rounded=0;" parent="1" vertex="1">
          <mxGeometry x="955" y="325" width="60" height="10" as="geometry" />
        </mxCell>
        <mxCell id="B1lKLUDy4WwGttco4L_s-3" value="2 x spade F" style="text;html=1;strokeColor=none;fillColor=none;align=left;verticalAlign=middle;whiteSpace=wrap;rounded=0;fontSize=10;" parent="1" vertex="1">
          <mxGeometry x="930" y="302" width="115" height="10" as="geometry" />
        </mxCell>
        <mxCell id="B1lKLUDy4WwGttco4L_s-4" value="" style="rounded=0;whiteSpace=wrap;html=1;fontSize=10;fillColor=#666666;strokeColor=none;" parent="1" vertex="1">
          <mxGeometry x="917" y="315" width="23" height="20" as="geometry" />
        </mxCell>
        <mxCell id="B1lKLUDy4WwGttco4L_s-5" value="" style="endArrow=none;html=1;rounded=1;strokeWidth=3;fontSize=10;fillColor=#e51400;strokeColor=#FF0000;" parent="1" edge="1">
          <mxGeometry width="50" height="50" relative="1" as="geometry">
            <mxPoint x="934.5" y="320" as="sourcePoint" />
            <mxPoint x="955" y="320" as="targetPoint" />
          </mxGeometry>
        </mxCell>
        <mxCell id="B1lKLUDy4WwGttco4L_s-6" value="" style="endArrow=none;html=1;rounded=1;strokeWidth=3;fontSize=10;fillColor=#e51400;strokeColor=#000000;" parent="1" edge="1">
          <mxGeometry width="50" height="50" relative="1" as="geometry">
            <mxPoint x="934.5" y="330" as="sourcePoint" />
            <mxPoint x="955" y="329.7600000000002" as="targetPoint" />
            <Array as="points">
              <mxPoint x="954.5" y="330" />
            </Array>
          </mxGeometry>
        </mxCell>
        <mxCell id="4H6ch2mRK0-bseAo2ckq-1" value="screw terminal" style="text;html=1;strokeColor=none;fillColor=none;align=left;verticalAlign=middle;whiteSpace=wrap;rounded=0;fontSize=10;" parent="1" vertex="1">
          <mxGeometry x="860" y="542" width="50" height="10" as="geometry" />
        </mxCell>
        <mxCell id="4H6ch2mRK0-bseAo2ckq-2" value="screw terminal" style="text;html=1;strokeColor=none;fillColor=none;align=left;verticalAlign=middle;whiteSpace=wrap;rounded=0;fontSize=10;" parent="1" vertex="1">
          <mxGeometry x="700" y="538" width="38" height="10" as="geometry" />
        </mxCell>
        <mxCell id="C70-OjE4IzjatPIYS-s7-1" value="&lt;font style=&quot;font-size: 10px;&quot;&gt;GND_SW&lt;/font&gt;" style="text;html=1;strokeColor=none;fillColor=none;align=right;verticalAlign=middle;whiteSpace=wrap;rounded=0;" parent="1" vertex="1">
          <mxGeometry x="106" y="599" width="60" height="10" as="geometry" />
        </mxCell>
        <mxCell id="C70-OjE4IzjatPIYS-s7-2" value="" style="endArrow=none;html=1;rounded=1;strokeWidth=3;fontSize=10;fillColor=#e51400;strokeColor=#E6E6E6;fontColor=#CCCC00;" parent="1" edge="1">
          <mxGeometry width="50" height="50" relative="1" as="geometry">
            <mxPoint x="166" y="604" as="sourcePoint" />
            <mxPoint x="186" y="604" as="targetPoint" />
          </mxGeometry>
        </mxCell>
        <mxCell id="C70-OjE4IzjatPIYS-s7-5" value="&lt;font style=&quot;font-size: 10px;&quot;&gt;SW (PL08)&lt;/font&gt;" style="text;html=1;strokeColor=none;fillColor=none;align=left;verticalAlign=middle;whiteSpace=wrap;rounded=0;" parent="1" vertex="1">
          <mxGeometry x="216" y="599" width="60" height="10" as="geometry" />
        </mxCell>
        <mxCell id="C70-OjE4IzjatPIYS-s7-6" value="" style="endArrow=none;html=1;rounded=1;strokeWidth=3;fontSize=10;fillColor=#e51400;strokeColor=#E6E6E6;fontColor=#CCCC00;" parent="1" edge="1">
          <mxGeometry width="50" height="50" relative="1" as="geometry">
            <mxPoint x="196" y="603.89" as="sourcePoint" />
            <mxPoint x="216" y="603.89" as="targetPoint" />
          </mxGeometry>
        </mxCell>
        <mxCell id="jBU4V6r3tLC9KR8uIH53-1" value="" style="endArrow=none;html=1;rounded=1;strokeWidth=3;fontSize=10;fillColor=#e51400;strokeColor=#e6e6e6;fontColor=#CCCC00;" parent="1" edge="1">
          <mxGeometry width="50" height="50" relative="1" as="geometry">
            <mxPoint x="196" y="605" as="sourcePoint" />
            <mxPoint x="186" y="563.86" as="targetPoint" />
            <Array as="points">
              <mxPoint x="196" y="619" />
              <mxPoint x="85" y="619" />
              <mxPoint x="85" y="589" />
              <mxPoint x="85" y="564" />
            </Array>
          </mxGeometry>
        </mxCell>
        <mxCell id="0LZvKdBmU08WbHENAA4L-27" value="&lt;font style=&quot;font-size: 8px;&quot;&gt;22kΩ&lt;/font&gt;" style="whiteSpace=wrap;html=1;spacingTop=0;fontSize=6;" parent="1" vertex="1">
          <mxGeometry x="129" y="614" width="25" height="10" as="geometry" />
        </mxCell>
        <mxCell id="0LZvKdBmU08WbHENAA4L-7" value="&lt;font style=&quot;font-size: 13px;&quot;&gt;power (20V, fuse protected)&lt;br style=&quot;font-size: 13px;&quot;&gt;&lt;/font&gt;" style="text;html=1;strokeColor=none;fillColor=none;align=left;verticalAlign=middle;whiteSpace=wrap;rounded=0;fontSize=13;" parent="1" vertex="1">
          <mxGeometry x="123" y="167" width="174" height="6.98" as="geometry" />
        </mxCell>
        <mxCell id="0LZvKdBmU08WbHENAA4L-9" value="&lt;font style=&quot;font-size: 13px;&quot;&gt;sound&lt;/font&gt;" style="text;html=1;strokeColor=none;fillColor=none;align=left;verticalAlign=middle;whiteSpace=wrap;rounded=0;fontSize=13;" parent="1" vertex="1">
          <mxGeometry x="123" y="257" width="154" height="6.98" as="geometry" />
        </mxCell>
        <mxCell id="0LZvKdBmU08WbHENAA4L-13" value="&lt;font style=&quot;font-size: 13px;&quot;&gt;power (20V)&lt;/font&gt;" style="text;html=1;strokeColor=none;fillColor=none;align=left;verticalAlign=middle;whiteSpace=wrap;rounded=0;fontSize=13;" parent="1" vertex="1">
          <mxGeometry x="123" y="151" width="154" height="6.98" as="geometry" />
        </mxCell>
        <mxCell id="0LZvKdBmU08WbHENAA4L-15" value="&lt;span style=&quot;font-size: 13px;&quot;&gt;power (grid 220V/110V)&lt;/span&gt;" style="text;html=1;strokeColor=none;fillColor=none;align=left;verticalAlign=middle;whiteSpace=wrap;rounded=0;fontSize=13;" parent="1" vertex="1">
          <mxGeometry x="123" y="136.01999999999998" width="164" height="6.98" as="geometry" />
        </mxCell>
        <mxCell id="0LZvKdBmU08WbHENAA4L-63" value="&lt;font style=&quot;font-size: 9px;&quot;&gt;power connected to 2 points on the LED strip&lt;/font&gt;" style="text;strokeColor=none;align=center;fillColor=none;html=1;verticalAlign=middle;whiteSpace=wrap;rounded=0;" parent="1" vertex="1">
          <mxGeometry x="565" y="806.48" width="90" height="45" as="geometry" />
        </mxCell>
        <mxCell id="-5amKMERLcREwqAfRV0c-7" value="" style="edgeStyle=orthogonalEdgeStyle;rounded=1;orthogonalLoop=1;jettySize=auto;html=1;strokeWidth=3;startArrow=none;startFill=0;endArrow=classic;endFill=1;fillColor=#fff2cc;strokeColor=#d6b656;entryX=0.146;entryY=0.018;entryDx=0;entryDy=0;entryPerimeter=0;" parent="1" source="pXlnRN1fEk7zmC_KEz_S-4" target="pXlnRN1fEk7zmC_KEz_S-3" edge="1">
          <mxGeometry relative="1" as="geometry">
            <mxPoint x="1081.5" y="424.0344827586207" as="targetPoint" />
            <Array as="points">
              <mxPoint x="380" y="424" />
              <mxPoint x="1136" y="424" />
            </Array>
            <mxPoint x="380" y="500" as="sourcePoint" />
          </mxGeometry>
        </mxCell>
        <mxCell id="0LZvKdBmU08WbHENAA4L-2" value="&lt;span style=&quot;font-size: 13px;&quot;&gt;data (leds + servos)&lt;/span&gt;" style="text;html=1;strokeColor=none;fillColor=none;align=left;verticalAlign=middle;whiteSpace=wrap;rounded=0;fontSize=13;" parent="1" vertex="1">
          <mxGeometry x="123" y="212" width="149" height="6.98" as="geometry" />
        </mxCell>
        <mxCell id="0LZvKdBmU08WbHENAA4L-3" value="" style="endArrow=none;html=1;rounded=1;strokeWidth=3;fontSize=13;fillColor=#e3c800;strokeColor=#3333FF;exitX=0.5;exitY=0.833;exitDx=0;exitDy=0;exitPerimeter=0;" parent="1" edge="1">
          <mxGeometry width="50" height="50" relative="1" as="geometry">
            <mxPoint x="103" y="215.58407407407412" as="sourcePoint" />
            <mxPoint x="123" y="215.58407407407412" as="targetPoint" />
          </mxGeometry>
        </mxCell>
        <mxCell id="0LZvKdBmU08WbHENAA4L-4" value="&lt;font style=&quot;font-size: 13px;&quot;&gt;power (5V)&lt;/font&gt;" style="text;html=1;strokeColor=none;fillColor=none;align=left;verticalAlign=middle;whiteSpace=wrap;rounded=0;fontSize=13;" parent="1" vertex="1">
          <mxGeometry x="123" y="182" width="159" height="6.98" as="geometry" />
        </mxCell>
        <mxCell id="0LZvKdBmU08WbHENAA4L-5" value="" style="endArrow=none;html=1;rounded=1;strokeWidth=3;fontSize=13;fillColor=#e3c800;strokeColor=#000000;exitX=0.5;exitY=0.833;exitDx=0;exitDy=0;exitPerimeter=0;" parent="1" edge="1">
          <mxGeometry width="50" height="50" relative="1" as="geometry">
            <mxPoint x="103" y="186.6504232804234" as="sourcePoint" />
            <mxPoint x="123" y="186.6504232804234" as="targetPoint" />
          </mxGeometry>
        </mxCell>
        <mxCell id="0LZvKdBmU08WbHENAA4L-8" value="" style="endArrow=none;html=1;rounded=1;strokeWidth=3;fontSize=13;fillColor=#e3c800;strokeColor=#b20000;exitX=0.5;exitY=0.833;exitDx=0;exitDy=0;exitPerimeter=0;" parent="1" edge="1">
          <mxGeometry width="50" height="50" relative="1" as="geometry">
            <mxPoint x="103" y="171.19613756613728" as="sourcePoint" />
            <mxPoint x="123" y="171.19613756613728" as="targetPoint" />
          </mxGeometry>
        </mxCell>
        <mxCell id="0LZvKdBmU08WbHENAA4L-10" value="" style="endArrow=none;html=1;rounded=1;strokeWidth=3;fontSize=13;fillColor=#e3c800;strokeColor=#d6b656;exitX=0.5;exitY=0.833;exitDx=0;exitDy=0;exitPerimeter=0;" parent="1" edge="1">
          <mxGeometry width="50" height="50" relative="1" as="geometry">
            <mxPoint x="103" y="261.95201058201076" as="sourcePoint" />
            <mxPoint x="123" y="261.95201058201076" as="targetPoint" />
          </mxGeometry>
        </mxCell>
        <mxCell id="0LZvKdBmU08WbHENAA4L-11" value="&lt;span style=&quot;font-size: 13px;&quot;&gt;data (encoder)&lt;/span&gt;" style="text;html=1;strokeColor=none;fillColor=none;align=left;verticalAlign=middle;whiteSpace=wrap;rounded=0;fontSize=13;" parent="1" vertex="1">
          <mxGeometry x="123" y="197" width="90" height="6.984126984126983" as="geometry" />
        </mxCell>
        <mxCell id="0LZvKdBmU08WbHENAA4L-12" value="" style="endArrow=none;html=1;rounded=1;strokeWidth=3;fontSize=13;fillColor=#e3c800;strokeColor=#67ab9f;exitX=0.5;exitY=0.833;exitDx=0;exitDy=0;exitPerimeter=0;" parent="1" edge="1">
          <mxGeometry width="50" height="50" relative="1" as="geometry">
            <mxPoint x="103" y="201.3789947089948" as="sourcePoint" />
            <mxPoint x="123" y="201.3789947089948" as="targetPoint" />
          </mxGeometry>
        </mxCell>
        <mxCell id="0LZvKdBmU08WbHENAA4L-14" value="" style="endArrow=none;html=1;rounded=1;strokeWidth=3;fontSize=13;fillColor=#e3c800;strokeColor=#cc6600;exitX=0.5;exitY=0.833;exitDx=0;exitDy=0;exitPerimeter=0;" parent="1" edge="1">
          <mxGeometry width="50" height="50" relative="1" as="geometry">
            <mxPoint x="103" y="155.65375661375674" as="sourcePoint" />
            <mxPoint x="123" y="155.65375661375674" as="targetPoint" />
          </mxGeometry>
        </mxCell>
        <mxCell id="0LZvKdBmU08WbHENAA4L-16" value="" style="endArrow=none;html=1;rounded=1;strokeWidth=3;fontSize=13;fillColor=#e3c800;strokeColor=#cc00cc;exitX=0.5;exitY=0.833;exitDx=0;exitDy=0;exitPerimeter=0;" parent="1" edge="1">
          <mxGeometry width="50" height="50" relative="1" as="geometry">
            <mxPoint x="103" y="140.39566137566146" as="sourcePoint" />
            <mxPoint x="123" y="140.39566137566146" as="targetPoint" />
          </mxGeometry>
        </mxCell>
        <mxCell id="0LZvKdBmU08WbHENAA4L-17" value="&lt;span style=&quot;font-size: 13px;&quot;&gt;data (ethernet)&lt;/span&gt;" style="text;html=1;strokeColor=none;fillColor=none;align=left;verticalAlign=middle;whiteSpace=wrap;rounded=0;fontSize=13;" parent="1" vertex="1">
          <mxGeometry x="123" y="228" width="129" height="6.98" as="geometry" />
        </mxCell>
        <mxCell id="0LZvKdBmU08WbHENAA4L-18" value="" style="endArrow=none;html=1;rounded=1;strokeWidth=3;fontSize=13;fillColor=#e3c800;strokeColor=#666666;exitX=0.5;exitY=0.833;exitDx=0;exitDy=0;exitPerimeter=0;" parent="1" edge="1">
          <mxGeometry width="50" height="50" relative="1" as="geometry">
            <mxPoint x="103" y="232.06994708994716" as="sourcePoint" />
            <mxPoint x="123" y="232.06994708994716" as="targetPoint" />
          </mxGeometry>
        </mxCell>
        <mxCell id="0LZvKdBmU08WbHENAA4L-66" value="&lt;b&gt;&lt;u&gt;Legend:&lt;/u&gt;&lt;/b&gt;" style="text;strokeColor=none;align=left;fillColor=none;html=1;verticalAlign=middle;whiteSpace=wrap;rounded=0;" parent="1" vertex="1">
          <mxGeometry x="95" y="102" width="189" height="30" as="geometry" />
        </mxCell>
        <mxCell id="-5amKMERLcREwqAfRV0c-18" style="edgeStyle=orthogonalEdgeStyle;orthogonalLoop=1;jettySize=auto;html=1;strokeWidth=3;fillColor=#a0522d;strokeColor=#6D1F00;rounded=1;entryX=0.792;entryY=0.991;entryDx=0;entryDy=0;entryPerimeter=0;" parent="1" source="-5amKMERLcREwqAfRV0c-17" target="rLxRDN-JaPaV8J7SCyjs-1" edge="1">
          <mxGeometry relative="1" as="geometry">
            <mxPoint x="1025" y="565" as="targetPoint" />
          </mxGeometry>
        </mxCell>
        <mxCell id="-5amKMERLcREwqAfRV0c-19" style="edgeStyle=orthogonalEdgeStyle;rounded=1;orthogonalLoop=1;jettySize=auto;html=1;entryX=0.998;entryY=0.853;entryDx=0;entryDy=0;fillColor=#a0522d;strokeColor=#6D1F00;strokeWidth=3;entryPerimeter=0;" parent="1" source="-5amKMERLcREwqAfRV0c-17" target="pXlnRN1fEk7zmC_KEz_S-4" edge="1">
          <mxGeometry relative="1" as="geometry">
            <Array as="points">
              <mxPoint x="1025" y="690" />
              <mxPoint x="1025" y="590" />
              <mxPoint x="700" y="590" />
              <mxPoint x="700" y="551" />
            </Array>
          </mxGeometry>
        </mxCell>
        <mxCell id="-5amKMERLcREwqAfRV0c-21" value="&lt;font style=&quot;font-size: 9px;&quot;&gt;4 * 0.35 mm&lt;sup&gt;2&lt;/sup&gt;&lt;/font&gt;" style="edgeLabel;html=1;align=center;verticalAlign=middle;resizable=0;points=[];labelBackgroundColor=none;" parent="-5amKMERLcREwqAfRV0c-19" vertex="1" connectable="0">
          <mxGeometry x="-0.9363" y="1" relative="1" as="geometry">
            <mxPoint x="-11" y="-12" as="offset" />
          </mxGeometry>
        </mxCell>
        <mxCell id="-5amKMERLcREwqAfRV0c-17" value="&lt;span style=&quot;font-size: 10px;&quot;&gt;Power switch&lt;br&gt;DPST&lt;br&gt;&lt;/span&gt;" style="rounded=1;whiteSpace=wrap;html=1;fillColor=#ffcc99;strokeColor=#36393d;" parent="1" vertex="1">
          <mxGeometry x="1112" y="672" width="120" height="36.5" as="geometry" />
        </mxCell>
        <mxCell id="rLxRDN-JaPaV8J7SCyjs-5" style="edgeStyle=orthogonalEdgeStyle;rounded=1;orthogonalLoop=1;jettySize=auto;html=1;entryX=0.164;entryY=0.999;entryDx=0;entryDy=0;strokeWidth=3;fillColor=#e51400;strokeColor=#CC6600;entryPerimeter=0;" parent="1" source="pXlnRN1fEk7zmC_KEz_S-1" target="rLxRDN-JaPaV8J7SCyjs-1" edge="1">
          <mxGeometry relative="1" as="geometry">
            <mxPoint x="817" y="850" as="targetPoint" />
            <Array as="points">
              <mxPoint x="820" y="650" />
              <mxPoint x="950" y="650" />
            </Array>
          </mxGeometry>
        </mxCell>
        <mxCell id="0LZvKdBmU08WbHENAA4L-35" value="&lt;font style=&quot;font-size: 9px;&quot;&gt;2 x 0.75 mm&lt;sup&gt;2&lt;/sup&gt;&lt;/font&gt;" style="edgeLabel;html=1;align=center;verticalAlign=middle;resizable=0;points=[];labelBackgroundColor=none;" parent="rLxRDN-JaPaV8J7SCyjs-5" vertex="1" connectable="0">
          <mxGeometry x="-0.12" relative="1" as="geometry">
            <mxPoint x="18" y="-12" as="offset" />
          </mxGeometry>
        </mxCell>
        <mxCell id="-5amKMERLcREwqAfRV0c-20" value="&lt;font style=&quot;font-size: 9px;&quot;&gt;2 x 0.35 mm&lt;sup&gt;2&lt;/sup&gt;&lt;/font&gt;" style="edgeLabel;html=1;align=center;verticalAlign=middle;resizable=0;points=[];rotation=0;labelBackgroundColor=none;" parent="1" vertex="1" connectable="0">
          <mxGeometry x="482.50076923076915" y="541" as="geometry" />
        </mxCell>
        <mxCell id="-5amKMERLcREwqAfRV0c-24" value="&lt;font style=&quot;font-size: 13px;&quot;&gt;data (power signal)&lt;/font&gt;" style="text;html=1;strokeColor=none;fillColor=none;align=left;verticalAlign=middle;whiteSpace=wrap;rounded=0;fontSize=13;" parent="1" vertex="1">
          <mxGeometry x="123" y="242.5" width="119" height="6.98" as="geometry" />
        </mxCell>
        <mxCell id="-5amKMERLcREwqAfRV0c-25" value="" style="endArrow=none;html=1;rounded=1;strokeWidth=3;fontSize=13;fillColor=#e3c800;strokeColor=#6d1f00;exitX=0.5;exitY=0.833;exitDx=0;exitDy=0;exitPerimeter=0;" parent="1" edge="1">
          <mxGeometry width="50" height="50" relative="1" as="geometry">
            <mxPoint x="103" y="247.45201058201076" as="sourcePoint" />
            <mxPoint x="123" y="247.45201058201076" as="targetPoint" />
          </mxGeometry>
        </mxCell>
        <mxCell id="-5amKMERLcREwqAfRV0c-28" value="&lt;font style=&quot;font-size: 19px;&quot;&gt;&lt;b&gt;&lt;span&gt;Wheel of Fortune wiring scheme&lt;/span&gt;&lt;/b&gt;&lt;/font&gt;" style="text;strokeColor=none;align=center;fillColor=none;html=1;verticalAlign=middle;whiteSpace=wrap;rounded=0;fontStyle=0" parent="1" vertex="1">
          <mxGeometry x="87" y="813.5" width="315" height="30" as="geometry" />
        </mxCell>
        <mxCell id="-5amKMERLcREwqAfRV0c-35" value="" style="edgeStyle=none;orthogonalLoop=1;jettySize=auto;html=1;rounded=0;exitX=0.001;exitY=0.278;exitDx=0;exitDy=0;exitPerimeter=0;entryX=1;entryY=0.276;entryDx=0;entryDy=0;entryPerimeter=0;endArrow=none;endFill=0;" parent="1" source="-5amKMERLcREwqAfRV0c-34" target="-5amKMERLcREwqAfRV0c-34" edge="1">
          <mxGeometry width="80" relative="1" as="geometry">
            <mxPoint x="122" y="847.5" as="sourcePoint" />
            <mxPoint x="202" y="847.5" as="targetPoint" />
            <Array as="points" />
          </mxGeometry>
        </mxCell>
        <mxCell id="-5amKMERLcREwqAfRV0c-37" value="" style="edgeStyle=none;orthogonalLoop=1;jettySize=auto;html=1;rounded=0;exitX=0.001;exitY=0.278;exitDx=0;exitDy=0;exitPerimeter=0;entryX=1;entryY=0.276;entryDx=0;entryDy=0;entryPerimeter=0;endArrow=none;endFill=0;" parent="1" edge="1">
          <mxGeometry width="80" relative="1" as="geometry">
            <mxPoint x="80" y="873.8699999999999" as="sourcePoint" />
            <mxPoint x="402" y="873.8699999999999" as="targetPoint" />
            <Array as="points" />
          </mxGeometry>
        </mxCell>
        <mxCell id="-5amKMERLcREwqAfRV0c-38" value="" style="edgeStyle=none;orthogonalLoop=1;jettySize=auto;html=1;rounded=0;endArrow=none;endFill=0;" parent="1" edge="1">
          <mxGeometry width="80" relative="1" as="geometry">
            <mxPoint x="151" y="847.5" as="sourcePoint" />
            <mxPoint x="151" y="873.5" as="targetPoint" />
            <Array as="points" />
          </mxGeometry>
        </mxCell>
        <mxCell id="-5amKMERLcREwqAfRV0c-39" value="Revision:" style="text;strokeColor=none;align=left;fillColor=none;html=1;verticalAlign=middle;whiteSpace=wrap;rounded=0;fontSize=10;" parent="1" vertex="1">
          <mxGeometry x="87" y="847.5" width="60" height="30" as="geometry" />
        </mxCell>
        <mxCell id="-5amKMERLcREwqAfRV0c-40" value="1.0" style="text;strokeColor=none;align=left;fillColor=none;html=1;verticalAlign=middle;whiteSpace=wrap;rounded=0;fontSize=10;" parent="1" vertex="1">
          <mxGeometry x="152" y="847.5" width="245" height="30" as="geometry" />
        </mxCell>
        <mxCell id="-5amKMERLcREwqAfRV0c-41" value="" style="edgeStyle=none;orthogonalLoop=1;jettySize=auto;html=1;rounded=0;exitX=0.001;exitY=0.278;exitDx=0;exitDy=0;exitPerimeter=0;entryX=1;entryY=0.276;entryDx=0;entryDy=0;entryPerimeter=0;endArrow=none;endFill=0;" parent="1" edge="1">
          <mxGeometry width="80" relative="1" as="geometry">
            <mxPoint x="80" y="899.8699999999999" as="sourcePoint" />
            <mxPoint x="402" y="899.8699999999999" as="targetPoint" />
            <Array as="points" />
          </mxGeometry>
        </mxCell>
        <mxCell id="-5amKMERLcREwqAfRV0c-42" value="" style="edgeStyle=none;orthogonalLoop=1;jettySize=auto;html=1;rounded=0;endArrow=none;endFill=0;" parent="1" edge="1">
          <mxGeometry width="80" relative="1" as="geometry">
            <mxPoint x="151" y="873.5" as="sourcePoint" />
            <mxPoint x="151" y="899.5" as="targetPoint" />
            <Array as="points" />
          </mxGeometry>
        </mxCell>
        <mxCell id="-5amKMERLcREwqAfRV0c-43" value="Date" style="text;strokeColor=none;align=left;fillColor=none;html=1;verticalAlign=middle;whiteSpace=wrap;rounded=0;fontSize=10;" parent="1" vertex="1">
          <mxGeometry x="87" y="873.5" width="60" height="30" as="geometry" />
        </mxCell>
        <mxCell id="-5amKMERLcREwqAfRV0c-44" value="2023-09-02" style="text;strokeColor=none;align=left;fillColor=none;html=1;verticalAlign=middle;whiteSpace=wrap;rounded=0;fontSize=10;" parent="1" vertex="1">
          <mxGeometry x="152" y="873.5" width="245" height="30" as="geometry" />
        </mxCell>
        <mxCell id="-5amKMERLcREwqAfRV0c-45" value="" style="edgeStyle=none;orthogonalLoop=1;jettySize=auto;html=1;rounded=0;exitX=0.001;exitY=0.278;exitDx=0;exitDy=0;exitPerimeter=0;entryX=1;entryY=0.276;entryDx=0;entryDy=0;entryPerimeter=0;endArrow=none;endFill=0;" parent="1" edge="1">
          <mxGeometry width="80" relative="1" as="geometry">
            <mxPoint x="80" y="925.8699999999999" as="sourcePoint" />
            <mxPoint x="402" y="925.8699999999999" as="targetPoint" />
            <Array as="points" />
          </mxGeometry>
        </mxCell>
        <mxCell id="-5amKMERLcREwqAfRV0c-46" value="" style="edgeStyle=none;orthogonalLoop=1;jettySize=auto;html=1;rounded=0;endArrow=none;endFill=0;" parent="1" edge="1">
          <mxGeometry width="80" relative="1" as="geometry">
            <mxPoint x="151" y="899.5" as="sourcePoint" />
            <mxPoint x="151" y="925.5" as="targetPoint" />
            <Array as="points" />
          </mxGeometry>
        </mxCell>
        <mxCell id="-5amKMERLcREwqAfRV0c-50" value="" style="edgeStyle=none;orthogonalLoop=1;jettySize=auto;html=1;rounded=0;endArrow=none;endFill=0;" parent="1" edge="1">
          <mxGeometry width="80" relative="1" as="geometry">
            <mxPoint x="151" y="925.5" as="sourcePoint" />
            <mxPoint x="151" y="951.5" as="targetPoint" />
            <Array as="points" />
          </mxGeometry>
        </mxCell>
        <mxCell id="UqkWfA2BPY7kU7Ovkipk-3" value="" style="rounded=0;whiteSpace=wrap;html=1;fontColor=#666666;strokeColor=#666666;" parent="1" vertex="1">
          <mxGeometry x="1111" y="806.5" width="18" height="40" as="geometry" />
        </mxCell>
        <mxCell id="UqkWfA2BPY7kU7Ovkipk-4" value="" style="endArrow=none;html=1;rounded=0;startArrow=oval;startFill=0;fontColor=#666666;strokeColor=#666666;" parent="1" edge="1">
          <mxGeometry width="50" height="50" relative="1" as="geometry">
            <mxPoint x="1089" y="816.5" as="sourcePoint" />
            <mxPoint x="1111.5" y="816.5" as="targetPoint" />
          </mxGeometry>
        </mxCell>
        <mxCell id="UqkWfA2BPY7kU7Ovkipk-15" value="&lt;font style=&quot;font-size: 8px;&quot;&gt;A1&lt;/font&gt;" style="edgeLabel;html=1;align=center;verticalAlign=middle;resizable=0;points=[];labelBackgroundColor=none;fontColor=#666666;" parent="UqkWfA2BPY7kU7Ovkipk-4" vertex="1" connectable="0">
          <mxGeometry x="-0.5414" relative="1" as="geometry">
            <mxPoint x="8" y="6" as="offset" />
          </mxGeometry>
        </mxCell>
        <mxCell id="UqkWfA2BPY7kU7Ovkipk-5" value="" style="endArrow=none;html=1;rounded=0;startArrow=oval;startFill=0;fontColor=#666666;strokeColor=#666666;" parent="1" edge="1">
          <mxGeometry width="50" height="50" relative="1" as="geometry">
            <mxPoint x="1151.5" y="816.5" as="sourcePoint" />
            <mxPoint x="1129" y="816.5" as="targetPoint" />
          </mxGeometry>
        </mxCell>
        <mxCell id="UqkWfA2BPY7kU7Ovkipk-16" value="&lt;font style=&quot;font-size: 8px;&quot;&gt;A2&lt;/font&gt;" style="edgeLabel;html=1;align=center;verticalAlign=middle;resizable=0;points=[];labelBackgroundColor=none;fontColor=#666666;" parent="UqkWfA2BPY7kU7Ovkipk-5" vertex="1" connectable="0">
          <mxGeometry x="-0.2316" y="1" relative="1" as="geometry">
            <mxPoint x="-5" y="6" as="offset" />
          </mxGeometry>
        </mxCell>
        <mxCell id="UqkWfA2BPY7kU7Ovkipk-6" value="" style="endArrow=none;html=1;rounded=0;startArrow=oval;startFill=0;fontColor=#666666;strokeColor=#666666;" parent="1" edge="1">
          <mxGeometry width="50" height="50" relative="1" as="geometry">
            <mxPoint x="1152" y="866.5" as="sourcePoint" />
            <mxPoint x="1126" y="876.5" as="targetPoint" />
            <Array as="points">
              <mxPoint x="1126" y="866.5" />
            </Array>
          </mxGeometry>
        </mxCell>
        <mxCell id="UqkWfA2BPY7kU7Ovkipk-12" value="18" style="edgeLabel;html=1;align=center;verticalAlign=middle;resizable=0;points=[];fontSize=8;labelBackgroundColor=none;fontColor=#666666;" parent="UqkWfA2BPY7kU7Ovkipk-6" vertex="1" connectable="0">
          <mxGeometry x="-0.6" y="1" relative="1" as="geometry">
            <mxPoint x="-6" y="5" as="offset" />
          </mxGeometry>
        </mxCell>
        <mxCell id="UqkWfA2BPY7kU7Ovkipk-8" value="" style="endArrow=oval;html=1;rounded=0;startArrow=none;startFill=0;endFill=0;fontColor=#666666;strokeColor=#666666;" parent="1" edge="1">
          <mxGeometry width="50" height="50" relative="1" as="geometry">
            <mxPoint x="1129" y="896.5" as="sourcePoint" />
            <mxPoint x="1089" y="886.5" as="targetPoint" />
            <Array as="points">
              <mxPoint x="1109" y="886.5" />
            </Array>
          </mxGeometry>
        </mxCell>
        <mxCell id="UqkWfA2BPY7kU7Ovkipk-13" value="15" style="edgeLabel;html=1;align=center;verticalAlign=middle;resizable=0;points=[];labelBackgroundColor=none;fontSize=8;fontColor=#666666;" parent="UqkWfA2BPY7kU7Ovkipk-8" vertex="1" connectable="0">
          <mxGeometry x="0.8678" y="2" relative="1" as="geometry">
            <mxPoint x="9" y="4" as="offset" />
          </mxGeometry>
        </mxCell>
        <mxCell id="UqkWfA2BPY7kU7Ovkipk-11" value="" style="endArrow=none;html=1;rounded=0;startArrow=oval;startFill=0;fontColor=#666666;strokeColor=#666666;" parent="1" edge="1">
          <mxGeometry width="50" height="50" relative="1" as="geometry">
            <mxPoint x="1152" y="908.5" as="sourcePoint" />
            <mxPoint x="1126.7" y="898.5" as="targetPoint" />
            <Array as="points">
              <mxPoint x="1126.7" y="908.5" />
            </Array>
          </mxGeometry>
        </mxCell>
        <mxCell id="UqkWfA2BPY7kU7Ovkipk-14" value="16" style="edgeLabel;html=1;align=center;verticalAlign=middle;resizable=0;points=[];labelBackgroundColor=none;fontSize=8;fontColor=#666666;" parent="UqkWfA2BPY7kU7Ovkipk-11" vertex="1" connectable="0">
          <mxGeometry x="-0.4373" relative="1" as="geometry">
            <mxPoint x="-5" y="5" as="offset" />
          </mxGeometry>
        </mxCell>
        <mxCell id="UqkWfA2BPY7kU7Ovkipk-17" value="" style="endArrow=none;dashed=1;html=1;rounded=0;fontColor=#666666;strokeColor=#666666;" parent="1" edge="1">
          <mxGeometry width="50" height="50" relative="1" as="geometry">
            <mxPoint x="1119" y="891.5" as="sourcePoint" />
            <mxPoint x="1119" y="846.5" as="targetPoint" />
          </mxGeometry>
        </mxCell>
        <mxCell id="UqkWfA2BPY7kU7Ovkipk-19" value="" style="endArrow=none;html=1;rounded=0;startArrow=oval;startFill=0;entryX=0.5;entryY=0;entryDx=0;entryDy=0;strokeColor=#666666;" parent="1" target="UqkWfA2BPY7kU7Ovkipk-3" edge="1">
          <mxGeometry width="50" height="50" relative="1" as="geometry">
            <mxPoint x="1120" y="786.5" as="sourcePoint" />
            <mxPoint x="1117" y="806.5" as="targetPoint" />
          </mxGeometry>
        </mxCell>
        <mxCell id="UqkWfA2BPY7kU7Ovkipk-20" value="&lt;font style=&quot;font-size: 8px;&quot;&gt;S&lt;/font&gt;" style="edgeLabel;html=1;align=center;verticalAlign=middle;resizable=0;points=[];labelBackgroundColor=none;fontColor=#666666;" parent="UqkWfA2BPY7kU7Ovkipk-19" vertex="1" connectable="0">
          <mxGeometry x="-0.2316" y="1" relative="1" as="geometry">
            <mxPoint x="-7" y="2" as="offset" />
          </mxGeometry>
        </mxCell>
        <mxCell id="UqkWfA2BPY7kU7Ovkipk-25" style="edgeStyle=orthogonalEdgeStyle;rounded=0;orthogonalLoop=1;jettySize=auto;html=1;strokeColor=#ff0000;endArrow=none;endFill=0;strokeWidth=3;" parent="1" edge="1">
          <mxGeometry relative="1" as="geometry">
            <mxPoint x="1089" y="816.5" as="targetPoint" />
            <mxPoint x="1044" y="886.5" as="sourcePoint" />
            <Array as="points">
              <mxPoint x="1044.5" y="816.5" />
            </Array>
          </mxGeometry>
        </mxCell>
        <mxCell id="UqkWfA2BPY7kU7Ovkipk-30" value="" style="endArrow=none;html=1;rounded=0;strokeColor=#000000;strokeWidth=3;" parent="1" edge="1">
          <mxGeometry width="50" height="50" relative="1" as="geometry">
            <mxPoint x="1153" y="816.5" as="sourcePoint" />
            <mxPoint x="1169" y="836.5" as="targetPoint" />
            <Array as="points">
              <mxPoint x="1169" y="816.5" />
            </Array>
          </mxGeometry>
        </mxCell>
        <mxCell id="UqkWfA2BPY7kU7Ovkipk-31" value="" style="endArrow=oval;html=1;rounded=0;strokeColor=#666666;startArrow=none;startFill=0;endFill=0;" parent="1" edge="1">
          <mxGeometry width="50" height="50" relative="1" as="geometry">
            <mxPoint x="1073" y="761.5" as="sourcePoint" />
            <mxPoint x="1103" y="766.5" as="targetPoint" />
            <Array as="points">
              <mxPoint x="1088" y="766.5" />
            </Array>
          </mxGeometry>
        </mxCell>
        <mxCell id="UqkWfA2BPY7kU7Ovkipk-32" value="" style="endArrow=none;html=1;rounded=0;strokeColor=#666666;startArrow=oval;startFill=0;" parent="1" edge="1">
          <mxGeometry width="50" height="50" relative="1" as="geometry">
            <mxPoint x="1053" y="766.5" as="sourcePoint" />
            <mxPoint x="1073" y="766.5" as="targetPoint" />
          </mxGeometry>
        </mxCell>
        <mxCell id="UqkWfA2BPY7kU7Ovkipk-37" value="" style="endArrow=none;html=1;rounded=0;strokeColor=#000000;strokeWidth=3;" parent="1" source="UqkWfA2BPY7kU7Ovkipk-39" edge="1">
          <mxGeometry width="50" height="50" relative="1" as="geometry">
            <mxPoint x="999" y="901.5" as="sourcePoint" />
            <mxPoint x="1169" y="836.5" as="targetPoint" />
            <Array as="points" />
          </mxGeometry>
        </mxCell>
        <mxCell id="UqkWfA2BPY7kU7Ovkipk-40" value="" style="endArrow=oval;html=1;rounded=0;endFill=0;strokeColor=#666666;" parent="1" edge="1">
          <mxGeometry width="50" height="50" relative="1" as="geometry">
            <mxPoint x="1073" y="751.5" as="sourcePoint" />
            <mxPoint x="1103" y="756.5" as="targetPoint" />
            <Array as="points">
              <mxPoint x="1088" y="756.5" />
            </Array>
          </mxGeometry>
        </mxCell>
        <mxCell id="UqkWfA2BPY7kU7Ovkipk-41" value="" style="endArrow=none;html=1;rounded=0;startArrow=oval;startFill=0;strokeColor=#666666;" parent="1" edge="1">
          <mxGeometry width="50" height="50" relative="1" as="geometry">
            <mxPoint x="1053" y="756.5" as="sourcePoint" />
            <mxPoint x="1073" y="756.5" as="targetPoint" />
          </mxGeometry>
        </mxCell>
        <mxCell id="UqkWfA2BPY7kU7Ovkipk-42" value="" style="endArrow=none;dashed=1;html=1;rounded=0;strokeColor=#666666;" parent="1" edge="1">
          <mxGeometry width="50" height="50" relative="1" as="geometry">
            <mxPoint x="1080" y="763.5" as="sourcePoint" />
            <mxPoint x="1080" y="746.5" as="targetPoint" />
          </mxGeometry>
        </mxCell>
        <mxCell id="UqkWfA2BPY7kU7Ovkipk-43" value="" style="endArrow=none;html=1;rounded=0;strokeColor=#808080;" parent="1" edge="1">
          <mxGeometry width="50" height="50" relative="1" as="geometry">
            <mxPoint x="1077" y="746.5" as="sourcePoint" />
            <mxPoint x="1083" y="746.5" as="targetPoint" />
          </mxGeometry>
        </mxCell>
        <mxCell id="UqkWfA2BPY7kU7Ovkipk-48" value="" style="endArrow=none;html=1;rounded=0;strokeColor=#FF0000;strokeWidth=3;" parent="1" edge="1">
          <mxGeometry width="50" height="50" relative="1" as="geometry">
            <mxPoint x="1044" y="816.5" as="sourcePoint" />
            <mxPoint x="1054" y="766.5" as="targetPoint" />
            <Array as="points">
              <mxPoint x="1044" y="766.5" />
            </Array>
          </mxGeometry>
        </mxCell>
        <mxCell id="UqkWfA2BPY7kU7Ovkipk-49" value="" style="endArrow=none;html=1;rounded=0;strokeColor=#FF0000;strokeWidth=3;" parent="1" edge="1">
          <mxGeometry width="50" height="50" relative="1" as="geometry">
            <mxPoint x="1104" y="766.5" as="sourcePoint" />
            <mxPoint x="1120" y="786.5" as="targetPoint" />
            <Array as="points">
              <mxPoint x="1120" y="766.5" />
            </Array>
          </mxGeometry>
        </mxCell>
        <mxCell id="UqkWfA2BPY7kU7Ovkipk-50" value="" style="endArrow=none;html=1;rounded=0;entryX=0;entryY=0.5;entryDx=0;entryDy=0;strokeWidth=3;" parent="1" target="UqkWfA2BPY7kU7Ovkipk-57" edge="1">
          <mxGeometry width="50" height="50" relative="1" as="geometry">
            <mxPoint x="1169" y="836.5" as="sourcePoint" />
            <mxPoint x="1215.77" y="836.71" as="targetPoint" />
            <Array as="points" />
          </mxGeometry>
        </mxCell>
        <mxCell id="UqkWfA2BPY7kU7Ovkipk-51" value="" style="endArrow=none;html=1;rounded=0;strokeColor=#FF0000;strokeWidth=3;" parent="1" edge="1">
          <mxGeometry width="50" height="50" relative="1" as="geometry">
            <mxPoint x="1189" y="866.5" as="sourcePoint" />
            <mxPoint x="1209" y="826.5" as="targetPoint" />
            <Array as="points">
              <mxPoint x="1194" y="866.5" />
              <mxPoint x="1194" y="826.5" />
            </Array>
          </mxGeometry>
        </mxCell>
        <mxCell id="UqkWfA2BPY7kU7Ovkipk-52" value="" style="endArrow=none;html=1;rounded=0;strokeWidth=3;" parent="1" edge="1">
          <mxGeometry width="50" height="50" relative="1" as="geometry">
            <mxPoint x="1169" y="836.5" as="sourcePoint" />
            <mxPoint x="1209" y="876.5" as="targetPoint" />
            <Array as="points">
              <mxPoint x="1184" y="851.5" />
              <mxPoint x="1184" y="861.5" />
              <mxPoint x="1184" y="876.5" />
            </Array>
          </mxGeometry>
        </mxCell>
        <mxCell id="UqkWfA2BPY7kU7Ovkipk-53" value="" style="endArrow=none;html=1;rounded=0;strokeColor=#FF0000;strokeWidth=3;" parent="1" source="UqkWfA2BPY7kU7Ovkipk-34" edge="1">
          <mxGeometry width="50" height="50" relative="1" as="geometry">
            <mxPoint x="1154" y="866.5" as="sourcePoint" />
            <mxPoint x="1209" y="866.5" as="targetPoint" />
            <Array as="points">
              <mxPoint x="1189" y="866.5" />
            </Array>
          </mxGeometry>
        </mxCell>
        <mxCell id="UqkWfA2BPY7kU7Ovkipk-56" value="&lt;span style=&quot;font-size: 10px;&quot;&gt;20V_AMP&lt;/span&gt;" style="text;html=1;strokeColor=none;fillColor=none;align=left;verticalAlign=middle;whiteSpace=wrap;rounded=0;" parent="1" vertex="1">
          <mxGeometry x="1208.5" y="821.5" width="72" height="10" as="geometry" />
        </mxCell>
        <mxCell id="UqkWfA2BPY7kU7Ovkipk-57" value="&lt;span style=&quot;font-size: 10px;&quot;&gt;GND_AMP&lt;/span&gt;" style="text;html=1;strokeColor=none;fillColor=none;align=left;verticalAlign=middle;whiteSpace=wrap;rounded=0;" parent="1" vertex="1">
          <mxGeometry x="1208.5" y="831.5" width="72" height="10" as="geometry" />
        </mxCell>
        <mxCell id="UqkWfA2BPY7kU7Ovkipk-58" value="&lt;span style=&quot;font-size: 10px;&quot;&gt;20V_DC_CNV&lt;/span&gt;" style="text;html=1;strokeColor=none;fillColor=none;align=left;verticalAlign=middle;whiteSpace=wrap;rounded=0;" parent="1" vertex="1">
          <mxGeometry x="1208.5" y="861.5" width="72" height="10" as="geometry" />
        </mxCell>
        <mxCell id="UqkWfA2BPY7kU7Ovkipk-59" value="&lt;span style=&quot;font-size: 10px;&quot;&gt;GND_DC_CNV&lt;/span&gt;" style="text;html=1;strokeColor=none;fillColor=none;align=left;verticalAlign=middle;whiteSpace=wrap;rounded=0;" parent="1" vertex="1">
          <mxGeometry x="1208.5" y="871.5" width="72" height="10" as="geometry" />
        </mxCell>
        <mxCell id="UqkWfA2BPY7kU7Ovkipk-60" value="" style="endArrow=none;html=1;rounded=0;strokeColor=#FF0000;strokeWidth=3;" parent="1" source="UqkWfA2BPY7kU7Ovkipk-69" edge="1">
          <mxGeometry width="50" height="50" relative="1" as="geometry">
            <mxPoint x="1034" y="887" as="sourcePoint" />
            <mxPoint x="1089.065573770492" y="886.5" as="targetPoint" />
          </mxGeometry>
        </mxCell>
        <mxCell id="UqkWfA2BPY7kU7Ovkipk-61" value="&lt;span style=&quot;font-size: 10px;&quot;&gt;20V_INPUT&lt;/span&gt;" style="text;html=1;strokeColor=none;fillColor=none;align=right;verticalAlign=middle;whiteSpace=wrap;rounded=0;" parent="1" vertex="1">
          <mxGeometry x="914" y="881.5" width="72" height="10" as="geometry" />
        </mxCell>
        <mxCell id="UqkWfA2BPY7kU7Ovkipk-62" value="&lt;span style=&quot;font-size: 10px;&quot;&gt;GND_INPUT&lt;/span&gt;" style="text;html=1;strokeColor=none;fillColor=none;align=right;verticalAlign=middle;whiteSpace=wrap;rounded=0;" parent="1" vertex="1">
          <mxGeometry x="915" y="896.5" width="72" height="10" as="geometry" />
        </mxCell>
        <mxCell id="UqkWfA2BPY7kU7Ovkipk-63" value="" style="endArrow=none;html=1;rounded=1;strokeWidth=3;fontSize=10;fillColor=#e51400;strokeColor=#E6E6E6;fontColor=#CCCC00;" parent="1" edge="1">
          <mxGeometry width="50" height="50" relative="1" as="geometry">
            <mxPoint x="1034" y="756.4399999999999" as="sourcePoint" />
            <mxPoint x="1054" y="756.4399999999999" as="targetPoint" />
          </mxGeometry>
        </mxCell>
        <mxCell id="UqkWfA2BPY7kU7Ovkipk-64" value="" style="endArrow=none;html=1;rounded=1;strokeWidth=3;fontSize=10;fillColor=#e51400;strokeColor=#E6E6E6;fontColor=#CCCC00;" parent="1" edge="1">
          <mxGeometry width="50" height="50" relative="1" as="geometry">
            <mxPoint x="1103" y="756.4399999999999" as="sourcePoint" />
            <mxPoint x="1123" y="756.4399999999999" as="targetPoint" />
          </mxGeometry>
        </mxCell>
        <mxCell id="UqkWfA2BPY7kU7Ovkipk-65" value="&lt;font style=&quot;font-size: 10px;&quot;&gt;GND_SW&lt;/font&gt;" style="text;html=1;strokeColor=none;fillColor=none;align=right;verticalAlign=middle;whiteSpace=wrap;rounded=0;" parent="1" vertex="1">
          <mxGeometry x="968" y="751.5" width="60" height="10" as="geometry" />
        </mxCell>
        <mxCell id="UqkWfA2BPY7kU7Ovkipk-66" value="&lt;font style=&quot;font-size: 10px;&quot;&gt;SW&lt;/font&gt;" style="text;html=1;strokeColor=none;fillColor=none;align=left;verticalAlign=middle;whiteSpace=wrap;rounded=0;" parent="1" vertex="1">
          <mxGeometry x="1126.5" y="751.5" width="60" height="10" as="geometry" />
        </mxCell>
        <mxCell id="UqkWfA2BPY7kU7Ovkipk-67" value="" style="endArrow=none;html=1;rounded=0;strokeColor=#000000;strokeWidth=3;exitX=1;exitY=0.5;exitDx=0;exitDy=0;" parent="1" source="UqkWfA2BPY7kU7Ovkipk-62" edge="1">
          <mxGeometry width="50" height="50" relative="1" as="geometry">
            <mxPoint x="999" y="901.5" as="sourcePoint" />
            <mxPoint x="1169" y="836.5" as="targetPoint" />
            <Array as="points">
              <mxPoint x="1049" y="901.5" />
              <mxPoint x="1049" y="936.5" />
              <mxPoint x="1169" y="936.5" />
            </Array>
          </mxGeometry>
        </mxCell>
        <mxCell id="UqkWfA2BPY7kU7Ovkipk-68" value="" style="endArrow=none;html=1;rounded=0;strokeColor=#FF0000;strokeWidth=3;" parent="1" target="UqkWfA2BPY7kU7Ovkipk-34" edge="1">
          <mxGeometry width="50" height="50" relative="1" as="geometry">
            <mxPoint x="1154" y="866.5" as="sourcePoint" />
            <mxPoint x="1209" y="866.5" as="targetPoint" />
            <Array as="points" />
          </mxGeometry>
        </mxCell>
        <mxCell id="UqkWfA2BPY7kU7Ovkipk-34" value="" style="ellipse;whiteSpace=wrap;html=1;aspect=fixed;fillColor=#FF0000;strokeColor=none;" parent="1" vertex="1">
          <mxGeometry x="1189" y="861.5" width="10" height="10" as="geometry" />
        </mxCell>
        <mxCell id="UqkWfA2BPY7kU7Ovkipk-70" value="" style="endArrow=none;html=1;rounded=0;exitX=1;exitY=0.5;exitDx=0;exitDy=0;strokeColor=#FF0000;strokeWidth=3;entryX=1;entryY=0.5;entryDx=0;entryDy=0;" parent="1" source="UqkWfA2BPY7kU7Ovkipk-61" target="UqkWfA2BPY7kU7Ovkipk-69" edge="1">
          <mxGeometry width="50" height="50" relative="1" as="geometry">
            <mxPoint x="999" y="886.5" as="sourcePoint" />
            <mxPoint x="1089.065573770492" y="886.5" as="targetPoint" />
          </mxGeometry>
        </mxCell>
        <mxCell id="UqkWfA2BPY7kU7Ovkipk-69" value="" style="ellipse;whiteSpace=wrap;html=1;aspect=fixed;fillColor=#FF0000;strokeColor=none;" parent="1" vertex="1">
          <mxGeometry x="1039" y="881.5" width="10" height="10" as="geometry" />
        </mxCell>
        <mxCell id="UqkWfA2BPY7kU7Ovkipk-73" value="&lt;font style=&quot;font-size: 10px;&quot;&gt;&lt;b&gt;&lt;u&gt;Power relay wiring scheme:&lt;/u&gt;&lt;/b&gt;&lt;/font&gt;" style="text;strokeColor=none;align=center;fillColor=none;html=1;verticalAlign=middle;whiteSpace=wrap;rounded=0;" parent="1" vertex="1">
          <mxGeometry x="920" y="713.75" width="150" height="30" as="geometry" />
        </mxCell>
        <mxCell id="UqkWfA2BPY7kU7Ovkipk-74" value="" style="rounded=0;whiteSpace=wrap;html=1;fillColor=default;" parent="1" vertex="1">
          <mxGeometry x="999" y="879" width="30" height="15" as="geometry" />
        </mxCell>
        <mxCell id="UqkWfA2BPY7kU7Ovkipk-75" value="" style="endArrow=none;html=1;rounded=0;exitX=0;exitY=0.5;exitDx=0;exitDy=0;entryX=1;entryY=0.5;entryDx=0;entryDy=0;" parent="1" source="UqkWfA2BPY7kU7Ovkipk-74" target="UqkWfA2BPY7kU7Ovkipk-74" edge="1">
          <mxGeometry width="50" height="50" relative="1" as="geometry">
            <mxPoint x="995" y="929" as="sourcePoint" />
            <mxPoint x="1045" y="879" as="targetPoint" />
          </mxGeometry>
        </mxCell>
        <mxCell id="UqkWfA2BPY7kU7Ovkipk-76" value="&lt;font style=&quot;font-size: 10px;&quot;&gt;4A&lt;/font&gt;" style="text;strokeColor=none;align=center;fillColor=none;html=1;verticalAlign=middle;whiteSpace=wrap;rounded=0;fontSize=10;" parent="1" vertex="1">
          <mxGeometry x="983" y="856" width="60" height="30" as="geometry" />
        </mxCell>
      </root>
    </mxGraphModel>
  </diagram>
</mxfile>
